STARTFONT 2.1
COMMENT This font image translated from Metafont
COMMENT Input file was ``bnsl10''
COMMENT DPI was ``300'', usermag ``1000'', blackness ``3''
COMMENT shrink was 1
FONT -*-bengali-medium-o-*-*-*-300-*-*-*-*-*-fontspecific
SIZE 10 300 300
FONTBOUNDINGBOX 81 52 -23 -12
STARTPROPERTIES 4
FONT_ASCENT 40
FONT_DESCENT 4
COPYRIGHT "GNU General Public License"
_XMBDFED_INFO "Edited with xmbdfed 4.5."
ENDPROPERTIES
CHARS 249
STARTCHAR C001
ENCODING 1
SWIDTH 504 0
DWIDTH 21 0
BBX 22 40 6 -3
BITMAP
800000
800000
800000
F00000
7FFF00
0FFFC0
0000E0
000020
000010
000010
000010
FFFFFC
FFFFFC
010000
010000
01FC00
07FE00
0F8100
1F0180
1C0180
000180
000380
000300
000700
000E00
003C00
80F800
7FE000
3F8000
180000
040000
020000
010000
008000
004000
002000
001000
000800
000400
000200
ENDCHAR
STARTCHAR C002
ENCODING 2
SWIDTH 600 0
DWIDTH 25 0
BBX 28 37 4 -1
BITMAP
08000000
08000000
0F000000
07FFFC00
00FFFF00
00000380
00000080
00000040
00000040
00000040
3FFFFFF0
3FFFFFF0
02000000
02000000
03C00000
0FE00000
1F100000
1F080600
1F0C1E00
0E0C7E00
000CFC00
001FD800
001FB800
003E3000
00783000
01E07000
03C06000
07006000
9E006000
7C00E000
3000C000
0000C000
0000C000
0000C000
0000C000
0000C000
00004000
ENDCHAR
STARTCHAR C003
ENCODING 3
SWIDTH 600 0
DWIDTH 25 0
BBX 27 34 5 2
BITMAP
80000000
80000000
E0000000
7FFFC000
1FFFF800
00003E00
00000700
00000180
00000080
00000080
7FFFFFE0
7FFFFFE0
00040000
000C0000
20080000
20080000
20080000
60180000
40101800
40103800
4010EC00
4033C400
403F0400
401C0400
40000400
60000400
20000C00
20000800
30001800
10003000
1800E000
0E03C000
07FF0000
01FC0000
ENDCHAR
STARTCHAR C004
ENCODING 4
SWIDTH 648 0
DWIDTH 27 0
BBX 28 34 6 2
BITMAP
20000000
20000000
38000000
1FFFE000
07FFFC00
00001F00
00000380
000000C0
00000040
00000040
FFFFFFF0
FFFFFFF0
00020000
00020000
44020000
44060000
44040000
4C040000
48040800
480C1C00
48087400
4809E400
480F8400
480E0400
68000400
28000400
2C000C00
34000800
16001800
1A003000
0F00E000
07C3C000
03FF0000
00FC0000
ENDCHAR
STARTCHAR C005
ENCODING 5
SWIDTH 720 0
DWIDTH 30 0
BBX 26 27 7 -1
BITMAP
38040040
7C0C60C0
7C3E60C0
7C73C0C0
79C3C0C0
3F8FC180
1E3CC180
00F18180
03C18180
07018300
1E018300
38030300
70030300
E0030600
78030600
1C060600
06070600
0307CC00
0186EC00
00CC3C00
00CC3C00
006C1800
006C1800
00380800
00380000
00180000
00100000
ENDCHAR
STARTCHAR C006
ENCODING 6
SWIDTH 648 0
DWIDTH 27 0
BBX 24 27 6 -1
BITMAP
00007C
0001FE
0007C3
000F03
001C03
003807
007006
006006
00FC06
20FE0E
60FE0C
40FE0C
C07C0C
80381C
800018
800018
800038
800030
C00030
700030
3FFF70
0FFFE0
0000E0
000060
0000E0
0000C0
000040
ENDCHAR
STARTCHAR C007
ENCODING 7
SWIDTH 768 0
DWIDTH 32 0
BBX 31 39 6 -1
BITMAP
00018000
00030000
00020000
00060000
00060000
00060000
00070000
0007C000
0003FF80
0000FFF8
000001FC
0000001E
00007C0E
0001FE06
0007C306
000F0304
001C0304
00380708
00700618
00600630
00FC06E0
20FE0F80
60FE0E00
40FE0C00
C07C1C00
80381800
80001800
80001800
80003800
80003000
C0003000
70003000
3FFF7000
0FFFE000
0000E000
00006000
0000E000
0000C000
00004000
ENDCHAR
STARTCHAR C008
ENCODING 8
SWIDTH 576 0
DWIDTH 24 0
BBX 21 24 6 2
BITMAP
000FE0
003FF0
00F818
01E018
638018
67C018
C7C030
C7C070
C38EE0
C01FC0
C03F80
C03F00
C03F80
C01CC0
C000C0
C000C0
C000C0
6000C0
600180
300380
300700
1C1E00
0FFC00
03F000
ENDCHAR
STARTCHAR C014
ENCODING 14
SWIDTH 288 0
DWIDTH 12 0
BBX 17 26 2 0
BITMAP
0FFF80
0FFF80
001800
003000
006000
006000
00C000
00C000
00C000
018000
018000
018000
018000
018000
018000
030000
030000
030000
030000
030000
060000
060000
0C0000
0C0000
180000
F00000
ENDCHAR
STARTCHAR C015
ENCODING 15
SWIDTH 0 0
DWIDTH 0 0
BBX 21 9 -23 -4
BITMAP
800000
800008
800018
800010
C00010
7FFF90
3FFFF0
000060
000020
ENDCHAR
STARTCHAR C016
ENCODING 16
SWIDTH 600 0
DWIDTH 25 0
BBX 26 29 6 -3
BITMAP
FFFFFFC0
FFFFFFC0
00E00800
00E00C00
00F00C00
01F00C00
01901C00
03981800
870C3800
FE07F000
7C3FE000
00FF8000
01F04000
03E06000
03806000
0000E000
0000C000
0001C000
08038000
040F0000
03FE0000
01F80000
00600000
00100000
00080000
00060000
00010000
00008000
00008000
ENDCHAR
STARTCHAR C017
ENCODING 17
SWIDTH 624 0
DWIDTH 26 0
BBX 27 27 6 -1
BITMAP
FFFFFFE0
FFFFFFE0
00700200
00780300
00F80300
00D80300
01C80700
038C0600
C7060E00
7E03FC00
3C00F800
00001800
00001800
00003000
00003000
00003000
0FF03000
1FFC6000
3E0E6000
7E036000
7E016000
7C01C000
3800C000
0000C000
0000C000
00018000
00008000
ENDCHAR
STARTCHAR C018
ENCODING 18
SWIDTH 1152 0
DWIDTH 48 0
BBX 49 28 6 -1
BITMAP
00000000000800
FFFFF003F00F80
FFFFF81FFC1F80
00700C7C0E1800
00700DE0031800
00F00FC0071800
00D00FE00FB000
01D81C303CF000
438C3810787000
7F07F019E03000
1E01E01FC06000
0000003F006000
0000003C006000
00000078006000
000000E000C000
0000000000C000
0000000000C000
0000000000C000
00000000018000
00000000018000
00000000018000
00000000018000
00000000030000
00000000030000
00000000030000
00000000030000
00000000060000
00000000020000
ENDCHAR
STARTCHAR C019
ENCODING 19
SWIDTH 1152 0
DWIDTH 48 0
BBX 49 28 6 -1
BITMAP
00000000000800
FFFFF003F00F80
FFFFF81FFC1F80
00700C7C0E1800
00700DE0031800
00F00FC0071800
00D00FE00FB000
01D81C303CF000
438C3810787000
7F07F019E03000
1E01E01FC06000
0000003F006000
0000003C006000
00000078006000
000000E000C000
0000000000C000
0000003F1CC000
000000FFBEC000
000001C0E38000
00000300438000
000002E0418000
000003F0018000
000003F0030000
000001F0030000
000000E0030000
00000000030000
00000000060000
00000000020000
ENDCHAR
STARTCHAR C020
ENCODING 20
SWIDTH 1008 0
DWIDTH 42 0
BBX 43 27 6 -1
BITMAP
FFFFFFFFFFE0
FFFFFFFFFFE0
007010000000
00F018000000
00F018000000
01F01801C000
01B03801F000
039030033800
671878030C00
3E0FEC030400
1C03C2030400
000007060400
00000F060C00
00001C067800
00003806F800
0000700CF000
0000E00CE000
0001C00C0000
0000F00C0000
00001C180000
000006180000
000001180000
000000980000
000000700000
000000700000
000000700000
000000200000
ENDCHAR
STARTCHAR C021
ENCODING 21
SWIDTH 624 0
DWIDTH 26 0
BBX 27 27 6 -1
BITMAP
FFFFFFE0
FFFFFFE0
00700200
00780300
00F80300
00D80300
01C80700
038C0600
C7060E00
7E03FC00
3C00F800
00001800
0001F800
000FF000
003E3000
00F03000
03C03000
0F006000
0FC06000
00E06000
00786000
001CC000
000EC000
0007C000
0003C000
00018000
00018000
ENDCHAR
STARTCHAR C022
ENCODING 22
SWIDTH 768 0
DWIDTH 32 0
BBX 33 27 6 -1
BITMAP
FFFFFFFF80
FFFFFFFF80
0070021800
0078031800
00F8031800
00D8033000
01C8073000
038C063000
C7060E3000
7E03FC6000
3C00F86000
0000306000
0000306000
000030C000
000060C000
0003E0C000
0007F0C000
000FF98000
000FED8000
000FC58000
0007878000
0000030000
0000030000
0000030000
0000030000
0000060000
0000020000
ENDCHAR
STARTCHAR C023
ENCODING 23
SWIDTH 624 0
DWIDTH 26 0
BBX 27 27 6 -1
BITMAP
FFFFFFE0
FFFFFFE0
00700200
00780300
00F80300
00D80300
01C80700
038C0600
C7060E00
7E03FC00
3C00F800
00001800
00001800
00003000
00003000
0FC73000
3FEFB000
7038E000
C010E000
B8106000
FC006000
FC00C000
FC00C000
7800C000
0000C000
00018000
00008000
ENDCHAR
STARTCHAR C024
ENCODING 24
SWIDTH 504 0
DWIDTH 21 0
BBX 24 30 4 -4
BITMAP
3FFFFF
3FFFFF
004000
007E00
01FF00
03E080
07E0C0
07C0C0
0781C0
000180
000380
000700
181E00
0FFC00
03F000
008000
006000
001000
000C00
0F8600
3FED00
783C80
F00C00
F00C00
F01800
E01800
001800
001800
003000
001000
ENDCHAR
STARTCHAR C025
ENCODING 25
SWIDTH 744 0
DWIDTH 31 0
BBX 32 26 6 0
BITMAP
FFFFFFFF
FFFFFFFF
00006000
00006000
0000E000
0007E380
001EC7C0
0070CFE0
01C0CFE0
0700CFE0
0C018760
380180C0
600180C0
E0018380
7803FF00
1E037C00
07030000
01830000
00C60000
00660000
00360000
0E360000
1E1C0000
1E1C0000
1C0C0000
00080000
ENDCHAR
STARTCHAR C026
ENCODING 26
SWIDTH 696 0
DWIDTH 29 0
BBX 30 26 6 0
BITMAP
FFFFFFFC
FFFFFFFC
00003000
00006000
0000E000
0003E000
001E6000
0070DC00
01C0F300
0300C300
0E00C300
38018600
60018600
E0018600
78018600
1E030C00
07030C00
01830C00
00C30C00
00660C00
00361800
0E361800
1E1E1800
1E1C1800
1C0C1800
00040000
ENDCHAR
STARTCHAR C027
ENCODING 27
SWIDTH 552 0
DWIDTH 23 0
BBX 24 29 6 -3
BITMAP
FFFFFF
FFFFFF
000000
000000
078180
1FC3C0
3C2740
7C3E60
7E1C60
7E1860
7C00E0
3800C0
0001C0
000380
000700
001E00
C07C00
7FF000
3FC000
0C0000
070000
018000
00E000
003000
001800
000C00
000600
000300
000180
ENDCHAR
STARTCHAR C028
ENCODING 28
SWIDTH 672 0
DWIDTH 28 0
BBX 29 29 6 -3
BITMAP
FFFFFFF8
FFFFFFF8
01000000
00800000
00FC0000
07FE0000
0F810000
1F019C00
1C01F600
0001C600
00038600
00030C00
00070C00
000E0C00
003C0C00
C0F81800
FFE01800
3F801800
18001800
0C001800
07003000
01803000
00C03000
00603000
00303000
00183000
000C0000
00060000
00030000
ENDCHAR
STARTCHAR C029
ENCODING 29
SWIDTH 696 0
DWIDTH 29 0
BBX 24 25 6 1
BITMAP
003F06
00FF86
01E0CF
03806F
67E03B
67F03B
661813
C01803
C01803
C03006
C0707E
C0E0FC
C1C1F8
C181F8
C001FC
6000E6
600006
600006
300006
30000C
18001C
0C0078
0701F0
03FFC0
00FF00
ENDCHAR
STARTCHAR C030
ENCODING 30
SWIDTH 720 0
DWIDTH 30 0
BBX 23 25 7 1
BITMAP
7C0F8C
3F1FCC
03B86E
00F07E
C0F03E
C3F836
C7FC36
CFFC06
DFFC06
DF7C0C
DC387C
C000F8
C001F8
C001F8
C001FC
6000EC
60000C
60000C
30000C
300018
180038
0C00F0
0703E0
03FFC0
00FE00
ENDCHAR
STARTCHAR C031
ENCODING 31
SWIDTH 648 0
DWIDTH 27 0
BBX 28 26 6 0
BITMAP
FFFFFFF0
FFFFFFF0
01000000
01000000
03F00000
07F87800
1F04FC00
3E078600
38070600
00063E00
000E7E00
000C7C00
001C7C00
00383800
C0F00000
7FE00000
1F800000
0C000000
02000000
01000000
00800000
00400000
00200000
00100000
00100000
00080000
ENDCHAR
STARTCHAR C032
ENCODING 32
SWIDTH 408 0
DWIDTH 17 0
BBX 0 0 0 0
BITMAP
ENDCHAR
STARTCHAR C033
ENCODING 33
SWIDTH 600 0
DWIDTH 25 0
BBX 12 34 15 -5
BITMAP
0060
00F0
00F0
00F0
01E0
01E0
01E0
01E0
01E0
03C0
03C0
03C0
03C0
0380
0780
0780
0780
0700
0700
0F00
0E00
0E00
0E00
0400
0000
0000
0000
0000
3800
7C00
FC00
FC00
F800
7000
ENDCHAR
STARTCHAR C034
ENCODING 34
SWIDTH 456 0
DWIDTH 19 0
BBX 16 15 8 19
BITMAP
0E0E
1F1F
3FBF
3FBF
3FBF
1F9F
0307
0706
060E
0E1C
1C38
3830
70F0
E1C0
C180
ENDCHAR
STARTCHAR C035
ENCODING 35
SWIDTH 552 0
DWIDTH 23 0
BBX 21 32 3 -6
BITMAP
000208
000718
000618
000E38
000C30
000C70
001C60
0018E0
0038C0
0030C0
0071C0
006180
3FFFF8
3FFFF8
00C700
01C600
018E00
038C00
7FFFF0
7FFFF0
061800
063800
0E3000
0C7000
1C6000
186000
38E000
30C000
71C000
618000
638000
E30000
ENDCHAR
STARTCHAR C036
ENCODING 36
SWIDTH 648 0
DWIDTH 27 0
BBX 27 38 2 -4
BITMAP
00000600
00000E00
00000C00
00001C00
00003800
00003000
00007000
00006000
0000E000
0000C000
0001C000
00038000
00030000
00070000
00060000
000E0000
001C0000
00180000
00380000
0030FFE0
0070FFE0
00600000
00E00000
01C00000
01800000
03800000
03000000
07000000
06000000
0E000000
1C000000
18000000
38000000
30000000
70000000
60000000
E0000000
40000000
ENDCHAR
STARTCHAR C037
ENCODING 37
SWIDTH 696 0
DWIDTH 29 0
BBX 30 38 3 -4
BITMAP
001C000C
0066000C
00C3003C
018380F8
01837F70
018300E0
030300C0
030301C0
03030380
06060700
06060E00
06060C00
060C1C00
060C3800
060C7000
06186000
0330E000
01C1C000
00038000
00070000
00060700
000E1980
001C30C0
003860C0
007060C0
0060C0C0
00E0C0C0
01C0C0C0
038180C0
07018180
06018180
0E018180
1C018300
38018300
70018600
6000CC00
E0007000
40000000
ENDCHAR
STARTCHAR C038
ENCODING 38
SWIDTH 480 0
DWIDTH 20 0
BBX 20 30 7 -3
BITMAP
03C000
0FE1F0
3F11F0
7F1980
7E1B00
783B00
003300
007300
81E600
7FC600
3F0600
080600
040C00
020C00
010C00
008C00
005800
003800
00F800
03F800
1F3000
7C3000
E03000
F83000
1E6000
076000
03E000
01E000
01C000
00C000
ENDCHAR
STARTCHAR C039
ENCODING 39
SWIDTH 288 0
DWIDTH 12 0
BBX 8 15 9 19
BITMAP
1E
3F
7F
7F
7F
3F
07
06
0E
0C
1C
38
70
E0
C0
ENDCHAR
STARTCHAR C040
ENCODING 40
SWIDTH 288 0
DWIDTH 12 0
BBX 14 41 5 -8
BITMAP
0004
0008
0010
0030
0060
0040
00C0
0180
0300
0300
0600
0600
0C00
0C00
1C00
1800
3800
3000
3000
7000
6000
6000
6000
E000
C000
C000
C000
C000
C000
C000
C000
C000
C000
4000
4000
6000
6000
2000
2000
3000
1000
ENDCHAR
STARTCHAR C041
ENCODING 41
SWIDTH 288 0
DWIDTH 12 0
BBX 14 41 -1 -8
BITMAP
0020
0010
0010
0018
0018
0008
0008
000C
000C
000C
000C
000C
000C
000C
000C
000C
000C
001C
001C
0018
0018
0018
0038
0030
0030
0070
0060
0060
00C0
00C0
0180
0180
0300
0600
0600
0C00
1800
1000
2000
4000
8000
ENDCHAR
STARTCHAR C042
ENCODING 42
SWIDTH 480 0
DWIDTH 20 0
BBX 18 21 7 13
BITMAP
003000
003000
003000
003000
1060C0
1861C0
1C6780
0E6E00
07FC00
03F000
01E000
03E000
0FF000
1DB800
799C00
E18E00
838200
030000
030000
030000
020000
ENDCHAR
STARTCHAR C043
ENCODING 43
SWIDTH 672 0
DWIDTH 28 0
BBX 26 27 4 -1
BITMAP
00008000
00018000
00018000
00018000
00038000
00030000
00030000
00030000
00070000
00060000
00060000
00060000
000E0000
FFFFFFC0
FFFFFFC0
000C0000
001C0000
00180000
00180000
00180000
00380000
00300000
00300000
00300000
00700000
00600000
00600000
ENDCHAR
STARTCHAR C044
ENCODING 44
SWIDTH 360 0
DWIDTH 15 0
BBX 8 15 5 -9
BITMAP
1E
3F
7F
7F
7F
3F
07
06
0E
1C
38
30
70
E0
C0
ENDCHAR
STARTCHAR C045
ENCODING 45
SWIDTH 360 0
DWIDTH 15 0
BBX 14 3 3 10
BITMAP
7FFC
7FFC
FFFC
ENDCHAR
STARTCHAR C046
ENCODING 46
SWIDTH 504 0
DWIDTH 21 0
BBX 8 27 16 -1
BITMAP
02
03
03
07
06
06
06
0E
0C
0C
0C
1C
18
18
18
38
30
30
30
70
60
60
60
E0
C0
C0
40
ENDCHAR
STARTCHAR C047
ENCODING 47
SWIDTH 288 0
DWIDTH 12 0
BBX 19 32 -1 -6
BITMAP
000040
0000E0
0000C0
0001C0
000180
000380
000300
000700
000E00
000C00
001C00
001800
003800
003000
007000
006000
00E000
01C000
018000
038000
030000
070000
060000
0E0000
0C0000
1C0000
180000
380000
700000
600000
E00000
C00000
ENDCHAR
STARTCHAR C048
ENCODING 48
SWIDTH 528 0
DWIDTH 22 0
BBX 19 19 5 3
BITMAP
00FC00
07FF00
0F8380
1E00C0
3800C0
300060
600060
600060
C00060
C00060
C00060
C000C0
C000C0
C00180
600380
600F00
383E00
1FFC00
07E000
ENDCHAR
STARTCHAR C049
ENCODING 49
SWIDTH 528 0
DWIDTH 22 0
BBX 14 25 8 1
BITMAP
1000
3800
3000
6000
6000
6000
3000
1800
0E00
0700
01C0
00E0
0030
0018
000C
000C
000C
000C
000C
1E18
7F38
FFF0
FFE0
FF80
7C00
ENDCHAR
STARTCHAR C050
ENCODING 50
SWIDTH 528 0
DWIDTH 22 0
BBX 16 27 6 -2
BITMAP
0C00
0C00
0C00
0600
0380
00E0
0038
000E
0003
0003
0003
0003
0006
C00C
F078
FFC0
7800
1C00
0E00
0300
0180
00C0
0060
0020
0010
0008
000C
ENDCHAR
STARTCHAR C051
ENCODING 51
SWIDTH 528 0
DWIDTH 22 0
BBX 17 19 6 2
BITMAP
400000
C00000
807C00
80FE00
81FB00
81F900
81F980
81F080
80E080
800080
C00080
400180
400100
600300
200600
300C00
1C3800
0FF000
03C000
ENDCHAR
STARTCHAR C052
ENCODING 52
SWIDTH 528 0
DWIDTH 22 0
BBX 20 27 4 -1
BITMAP
001F00
007FC0
01C1E0
020070
040030
0C0030
080030
180020
180060
180040
1C0180
0F0700
07FC00
01F800
03BE00
0E0F00
180380
200180
600180
400180
C00100
C00300
C00200
E00400
783800
3FE000
0F8000
ENDCHAR
STARTCHAR C053
ENCODING 53
SWIDTH 528 0
DWIDTH 22 0
BBX 22 27 3 -1
BITMAP
000400
000E00
003E00
007E00
00E200
01C100
0380C0
070078
0E003C
1C0078
1800E0
3801C0
300380
700700
600E00
E00C00
C01C00
C01800
C03800
C03000
403000
603000
203000
101000
0E1800
07FC00
00FE00
ENDCHAR
STARTCHAR C054
ENCODING 54
SWIDTH 528 0
DWIDTH 22 0
BBX 17 22 6 2
BITMAP
018000
01C000
404000
404000
404000
C04000
804000
80C180
808380
808E80
809C80
80F080
80E080
800080
800180
C00100
400300
400600
601C00
307800
1FE000
0F8000
ENDCHAR
STARTCHAR C055
ENCODING 55
SWIDTH 528 0
DWIDTH 22 0
BBX 15 27 7 -1
BITMAP
01F0
07F8
0F04
1C06
3806
7006
6006
E006
C006
603E
3FFC
0FEC
000C
001C
0018
0018
0018
0018
0038
0030
0030
0030
0030
0030
0030
0010
0008
ENDCHAR
STARTCHAR C056
ENCODING 56
SWIDTH 528 0
DWIDTH 22 0
BBX 20 25 4 1
BITMAP
080000
0C0000
0C0000
0C0000
0C0000
0C0000
180000
180000
180000
180010
1FE1F0
3FFFE0
301E00
300C00
300C00
601800
601800
603000
603000
C06000
C0C000
C18000
C70000
FE0000
780000
ENDCHAR
STARTCHAR C057
ENCODING 57
SWIDTH 528 0
DWIDTH 22 0
BBX 19 27 3 -1
BITMAP
010000
030000
030000
030000
030000
030000
038000
01C000
00F000
007800
001E00
000F00
000380
0001C0
0000C0
0000E0
000060
07C060
1FE060
307060
403840
F818C0
FC1880
FC1900
F81E00
701C00
001000
ENDCHAR
STARTCHAR C058
ENCODING 58
SWIDTH 408 0
DWIDTH 17 0
BBX 10 20 9 2
BITMAP
0780
0FC0
1FC0
1FC0
1F80
0F00
0000
0000
0000
0000
0000
0000
0000
3800
7C00
FC00
FC00
FC00
F800
7000
ENDCHAR
STARTCHAR C059
ENCODING 59
SWIDTH 360 0
DWIDTH 15 0
BBX 10 23 5 -9
BITMAP
0780
0FC0
1FC0
1FC0
1F80
0F00
0000
0000
1E00
3F00
7F00
7F00
7F00
3F00
0700
0600
0E00
1C00
3800
3000
7000
E000
C000
ENDCHAR
STARTCHAR C060
ENCODING 60
SWIDTH 744 0
DWIDTH 31 0
BBX 18 27 16 -1
BITMAP
000080
0200C0
0700C0
0601C0
060180
060180
0E0180
0C0380
0C0300
0C0300
1C0300
180700
180600
180600
380600
300E00
300C00
300C00
700C00
601C00
601800
601800
E01800
C03800
C03000
C03000
401000
ENDCHAR
STARTCHAR C061
ENCODING 61
SWIDTH 696 0
DWIDTH 29 0
BBX 27 11 4 6
BITMAP
3FFFFFE0
3FFFFFE0
00000000
00000000
00000000
00000000
00000000
00000000
00000000
FFFFFF80
FFFFFF80
ENDCHAR
STARTCHAR C062
ENCODING 62
SWIDTH 504 0
DWIDTH 21 0
BBX 22 30 6 -4
BITMAP
FFFFFC
FFFFFC
010000
01F800
07FC00
0F8200
1F8300
1F0300
1E0700
000600
000E00
001C00
607800
3FF000
0FC000
020000
018000
004000
003000
001800
01F400
0FF200
3E3000
703000
7C6000
0F6000
03E000
01E000
00C000
004000
ENDCHAR
STARTCHAR C063
ENCODING 63
SWIDTH 792 0
DWIDTH 33 0
BBX 16 31 20 -3
BITMAP
03F0
0E0C
1806
3C03
7E03
7E03
7C03
3806
0006
000C
0018
0030
00E0
0180
0300
0600
0600
0600
0C00
0C00
0C00
0C00
0000
0000
0000
3800
7C00
FC00
FC00
F800
7000
ENDCHAR
STARTCHAR C064
ENCODING 64
SWIDTH 648 0
DWIDTH 27 0
BBX 29 29 5 -3
BITMAP
7FFFFFF8
7FFFFFF8
00060000
00060000
00060000
0F860000
3FCC0000
7C6C0000
FC2C0100
F83C0F00
70187B00
0019C600
001F0600
001C0600
00380C00
00000C00
00001C00
00007800
0003F800
000F9800
007C1800
007E3000
00073000
0003B000
0001F000
0000E000
0000E000
00006000
00006000
ENDCHAR
STARTCHAR C065
ENCODING 65
SWIDTH 288 0
DWIDTH 12 0
BBX 14 27 5 -1
BITMAP
63FC
73FC
1B00
0F00
0E00
0600
0600
0E00
0C00
0C00
0C00
1C00
1800
1800
1800
3800
3000
3000
3000
7000
6000
6000
6000
E000
C000
C000
4000
ENDCHAR
STARTCHAR C066
ENCODING 66
SWIDTH 528 0
DWIDTH 22 0
BBX 14 27 7 -1
BITMAP
00F0
03F8
0F0C
1C04
3404
260C
43F8
41F0
8000
8000
8000
8000
C000
6000
3000
1C00
0E00
0380
01C0
0060
0030
0018
0008
000C
0004
0008
0008
ENDCHAR
STARTCHAR C067
ENCODING 67
SWIDTH 552 0
DWIDTH 23 0
BBX 25 30 5 -4
BITMAP
7FFFFF80
7FFFFF80
0C000000
1C000000
1C000000
1C000000
1BDF0000
39FF8000
30184000
30386000
30706000
71E06000
67C0E000
7F00C000
3C01C000
00038000
001F0000
00FC0000
FFF00000
7F800000
03C00000
00F00000
00380000
000C0000
00060000
00030000
00018000
0000C000
0000C000
00004000
ENDCHAR
STARTCHAR C068
ENCODING 68
SWIDTH 600 0
DWIDTH 25 0
BBX 26 24 6 2
BITMAP
FFFFFFC0
FFFFFFC0
00080000
00180000
40100000
40100000
40100000
C0300000
80203000
80207000
8021D800
80678800
807E0800
80380800
80000800
C0000800
40001800
40001000
60003000
20006000
3001C000
1C078000
0FFE0000
03F80000
ENDCHAR
STARTCHAR C069
ENCODING 69
SWIDTH 312 0
DWIDTH 13 0
BBX 16 38 4 -1
BITMAP
8000
8000
8000
C000
7F80
3FF0
0078
000C
0006
0002
0002
3FFF
3FFF
0018
0030
0060
00C0
0180
0300
0300
0600
0C00
0C00
1800
1800
3000
3000
6000
6000
6000
6000
6000
6000
3000
31E0
1BE0
0FE0
07C0
ENDCHAR
STARTCHAR C070
ENCODING 70
SWIDTH 552 0
DWIDTH 23 0
BBX 24 27 6 -1
BITMAP
FFFFFF
FFFFFF
700030
1C0030
060030
010060
008060
004060
00E060
03D0C0
078CC0
1E06C0
3C01C0
700180
E00180
F80180
1E0180
070300
018300
00C300
006300
003600
001E00
001E00
000E00
000C00
000400
ENDCHAR
STARTCHAR C071
ENCODING 71
SWIDTH 552 0
DWIDTH 23 0
BBX 24 27 6 -1
BITMAP
FFFFFF
FFFFFF
180030
380030
700030
600060
600060
600060
207060
1FF0C0
0FE0C0
0380C0
0F00C0
1E0180
380180
700180
7C0180
0F0300
038300
00C300
006300
003600
001E00
001E00
000E00
000C00
000400
ENDCHAR
STARTCHAR C072
ENCODING 72
SWIDTH 360 0
DWIDTH 15 0
BBX 14 24 4 2
BITMAP
00F0
03F8
0708
0E0C
0C0C
0C0C
0C1C
0438
07F0
03C0
0000
0000
0000
0000
0F00
3F80
7080
E0C0
C0C0
C0C0
C1C0
4380
7F00
3C00
ENDCHAR
STARTCHAR C073
ENCODING 73
SWIDTH 240 0
DWIDTH 10 0
BBX 27 39 -10 -1
BITMAP
0FFE0000
3FFF8000
7001E000
C0007000
80001800
80000C00
80000400
E0000600
7FF00200
1FFC0200
000E0200
00020200
00023FE0
00023FE0
00000600
00000600
00000C00
00000C00
00000C00
00000C00
00001800
00001800
00001800
00001800
00003000
00003000
00003000
00003000
00006000
00006000
00006000
00006000
0000C000
0000C000
0000C000
0000C000
00018000
00018000
00008000
ENDCHAR
STARTCHAR C074
ENCODING 74
SWIDTH 672 0
DWIDTH 28 0
BBX 29 28 6 -1
BITMAP
00000080
FFFFC0F8
FFFFE1F8
0000C180
0000C180
0003C180
000FC300
003D8300
00F18300
03C18300
07018600
1C030600
38030600
60030600
E0030C00
78060C00
1C060C00
06070C00
03079800
018CD800
00CC7800
00CC7800
006C3000
00783000
00381000
00380000
00380000
00100000
ENDCHAR
STARTCHAR C075
ENCODING 75
SWIDTH 624 0
DWIDTH 26 0
BBX 27 28 6 -1
BITMAP
00000200
000803E0
001C07E0
007E0600
38F30600
7DC18600
FF818E00
FF018C00
FE030C00
78070C00
000E1C00
003C1800
01F81800
0FE01800
1F003800
1F003000
03C03000
00E03000
00307000
00186000
000C6000
00066000
0006E000
0003C000
0003C000
0001C000
0001C000
00008000
ENDCHAR
STARTCHAR C076
ENCODING 76
SWIDTH 744 0
DWIDTH 31 0
BBX 32 27 6 -1
BITMAP
FFFFFFFF
FFFFFFFF
08000C00
0C000C00
0C000C00
3F801800
7FC01FC0
FC7FFFE0
FC3FF860
F8303060
703030E0
003030C0
003030C0
007061C0
03E06180
07E06180
0FF86380
0FDCC300
0F86C300
0702C300
0003C700
00018600
00018600
00018600
00038000
00030000
00010000
ENDCHAR
STARTCHAR C077
ENCODING 77
SWIDTH 408 0
DWIDTH 17 0
BBX 12 25 7 1
BITMAP
03C0
0FE0
1C20
3830
3030
3070
10E0
1FC0
0F00
0000
0000
4000
6000
F000
7000
3800
3C00
1C00
0E00
0600
0600
0300
0300
0100
0180
ENDCHAR
STARTCHAR C078
ENCODING 78
SWIDTH 528 0
DWIDTH 22 0
BBX 23 28 6 -1
BITMAP
000020
03E03E
0FF87E
1E0C60
380660
700360
6001E0
E001C0
C000C0
C700C0
CF81C0
4F8180
7F8180
3F0180
000380
000300
000300
000300
000700
000600
000600
000600
000E00
000C00
000C00
000C00
001C00
000800
ENDCHAR
STARTCHAR C079
ENCODING 79
SWIDTH 240 0
DWIDTH 10 0
BBX 27 37 -10 -1
BITMAP
80000000
80000000
E0000000
7FFF0000
1FFFF000
0000FC00
00000E00
00000300
00000100
00000100
00003FE0
00003FE0
00000600
00000600
00000C00
00000C00
00000C00
00000C00
00001800
00001800
00001800
00001800
00003000
00003000
00003000
00003000
00006000
00006000
00006000
00006000
0000C000
0000C000
0000C000
0000C000
00018000
00018000
00008000
ENDCHAR
STARTCHAR C080
ENCODING 80
SWIDTH 792 0
DWIDTH 33 0
BBX 29 28 7 -1
BITMAP
00004000
07C0E000
1FE0C1E0
3820C7F0
7830CE10
F831D808
7831B008
7071E008
0061C010
00E383F0
01C307E0
078307C0
1E0307C0
7C070020
F0070020
FC070020
0E068020
030EC040
018C61C0
00CC3F80
00CC1E00
007C0000
00780000
00380000
00380000
00380000
00300000
00100000
ENDCHAR
STARTCHAR C081
ENCODING 81
SWIDTH 888 0
DWIDTH 37 0
BBX 34 27 5 -1
BITMAP
00003C0000
0000FE0000
0003E30000
0007830000
000E030F80
001C073FC0
003806E1C0
00300780C0
007C0700C0
107E0E00C0
307E0E0080
607E0C1D80
407C0C3F00
C0381C3E00
8000183F00
8000181F00
80001C0300
80003C0300
C0003C0300
70003C0600
3FFF360E00
0FFFF3FC00
0000E1F800
0000600000
0000600000
0000E00000
0000400000
ENDCHAR
STARTCHAR C082
ENCODING 82
SWIDTH 600 0
DWIDTH 25 0
BBX 26 32 6 -6
BITMAP
FFFFFFC0
FFFFFFC0
00080000
00180000
40100000
40100000
40100000
C0300000
80203000
80207000
8021D800
80678800
807E0800
80380800
80000800
C0000800
40001800
40001000
60003000
20006000
3001C000
1C078000
0FFE0000
03F80000
00000000
00000000
00000000
03800000
07C00000
07C00000
07C00000
03800000
ENDCHAR
STARTCHAR C083
ENCODING 83
SWIDTH 576 0
DWIDTH 24 0
BBX 26 28 5 -1
BITMAP
00000400
E00007C0
780F0FC0
1C3F8C00
0678CC00
03E06C00
03C07C00
0FE03800
1FF01800
3FF81800
7FF83800
FFF83000
FDF83000
F0F03000
00007000
00006000
00006000
00006000
0000E000
0000C000
0000C000
0000C000
0001C000
00018000
00018000
00018000
00038000
00010000
ENDCHAR
STARTCHAR C084
ENCODING 84
SWIDTH 480 0
DWIDTH 20 0
BBX 22 36 5 1
BITMAP
400000
400000
400000
700000
3FFF00
0FFFC0
0000E0
000020
000010
000010
000010
7FFFFC
7FFFFC
0C0000
0C0000
0C0000
180000
180000
180000
180000
300E00
301F00
301F00
301F00
600F00
600600
600600
600C00
C01C00
C03800
C07000
C1E000
C3C000
CF0000
7E0000
380000
ENDCHAR
STARTCHAR C085
ENCODING 85
SWIDTH 0 0
DWIDTH 0 0
BBX 16 13 -12 -12
BITMAP
0F80
3F80
7000
C000
8000
8100
FF80
7EE0
0070
0018
000E
0007
0001
ENDCHAR
STARTCHAR C086
ENCODING 86
SWIDTH 480 0
DWIDTH 20 0
BBX 23 32 4 -6
BITMAP
3FFFFE
3FFFFE
060000
060000
060000
0C0000
0C0000
0C0000
0C0000
180700
180F80
180F80
180F80
300780
300300
300300
300600
600E00
601C00
603800
60F000
61E000
678000
3F0000
1C0000
000000
000000
700000
F80000
F80000
F80000
700000
ENDCHAR
STARTCHAR C087
ENCODING 87
SWIDTH 0 0
DWIDTH 0 0
BBX 10 10 -11 -9
BITMAP
0300
0F00
1E00
7800
F000
7800
1C00
0700
03C0
00C0
ENDCHAR
STARTCHAR C088
ENCODING 88
SWIDTH 480 0
DWIDTH 20 0
BBX 22 25 5 1
BITMAP
7FFFFC
7FFFFC
0C0000
0C0000
0C0000
180000
180000
180000
180000
300E00
301F00
301F00
301F00
600F00
600600
600600
600C00
C01C00
C03800
C07000
C1E000
C3C000
CF0000
7E0000
380000
ENDCHAR
STARTCHAR C089
ENCODING 89
SWIDTH 552 0
DWIDTH 23 0
BBX 24 27 6 -1
BITMAP
FFFFFF
FFFFFF
700030
1C0030
060030
010060
008060
004060
00E060
03C0C0
0780C0
1E00C0
3C00C0
700180
E00180
F80180
1E0180
070300
018300
00C300
006300
003600
001E00
001E00
000E00
000C00
000400
ENDCHAR
STARTCHAR C090
ENCODING 90
SWIDTH 504 0
DWIDTH 21 0
BBX 24 39 4 1
BITMAP
000400
000E00
001C00
001800
001800
001800
001800
001800
001800
000800
000C00
000C00
000400
000600
3FFFFF
3FFFFF
000700
000700
000700
000F80
000D80
001C80
0018C0
0038C0
0030C0
0070C0
00E0C0
01C0C0
0381C0
0F0180
1E0380
780300
F00700
C00E00
C01C00
C03800
40F000
3FE000
1F8000
ENDCHAR
STARTCHAR C091
ENCODING 91
SWIDTH 192 0
DWIDTH 8 0
BBX 17 42 0 -8
BITMAP
003F80
003F80
003F00
003800
007000
007000
007000
007000
00E000
00E000
00E000
00E000
01C000
01C000
01C000
01C000
038000
038000
038000
038000
078000
070000
070000
070000
0F0000
0E0000
0E0000
0E0000
1E0000
1C0000
1C0000
1C0000
3C0000
380000
380000
380000
780000
700000
700000
7E0000
FE0000
FE0000
ENDCHAR
STARTCHAR C092
ENCODING 92
SWIDTH 456 0
DWIDTH 19 0
BBX 16 15 8 19
BITMAP
0183
0387
070E
0E1C
1C18
3838
3070
7060
E0E0
FCF8
FFFC
FFFC
FFFC
FCF8
7870
ENDCHAR
STARTCHAR C093
ENCODING 93
SWIDTH 192 0
DWIDTH 8 0
BBX 16 42 -2 -8
BITMAP
003F
003F
007F
007E
000E
000E
000E
001C
001C
001C
001C
0038
0038
0038
0038
0070
0070
0070
0070
00E0
00E0
00E0
00E0
01C0
01C0
01C0
01C0
0380
0380
0380
0380
0700
0700
0700
0700
0E00
0E00
0E00
0E00
FC00
FC00
FC00
ENDCHAR
STARTCHAR C094
ENCODING 94
SWIDTH 0 0
DWIDTH 0 0
BBX 20 10 0 27
BITMAP
000070
0001C0
000300
000E00
003800
00E000
038000
0E0000
3C0000
F00000
ENDCHAR
STARTCHAR C095
ENCODING 95
SWIDTH 0 0
DWIDTH 0 0
BBX 7 8 -5 -11
BITMAP
80
C0
60
30
18
0C
06
02
ENDCHAR
STARTCHAR C096
ENCODING 96
SWIDTH 288 0
DWIDTH 12 0
BBX 8 15 8 19
BITMAP
03
07
0E
0C
1C
38
70
60
E0
FC
FE
FE
FE
FC
78
ENDCHAR
STARTCHAR C097
ENCODING 97
SWIDTH 792 0
DWIDTH 33 0
BBX 34 27 6 -1
BITMAP
FFFFFFFFC0
FFFFFFFFC0
0040000C00
0020000C00
401F800C00
603FE01800
207C701800
20FC101800
20FC181800
20F8083000
2070083000
2000083000
3000083000
1000186000
1000106000
1800106000
0800306000
0C0038C000
040068C000
0600CCC000
038384C000
01FF078000
007C038000
0000038000
0000038000
0000030000
0000010000
ENDCHAR
STARTCHAR C098
ENCODING 98
SWIDTH 504 0
DWIDTH 21 0
BBX 23 26 5 0
BITMAP
7FFFFE
7FFFFE
000060
000060
0000E0
0007C0
001CC0
0070C0
01C0C0
070180
0C0180
380180
600180
E00300
700300
1C0300
0E0300
030600
018600
00C600
006600
003C00
003C00
001C00
001C00
000800
ENDCHAR
STARTCHAR C099
ENCODING 99
SWIDTH 480 0
DWIDTH 20 0
BBX 22 25 5 1
BITMAP
7FFFFC
7FFFFC
0C0000
0C0000
0C0000
1E0000
1E0000
1B0000
19C000
30F800
303F00
300700
300300
600600
600600
600C00
601C00
C03800
C07000
C0E000
C3C000
C78000
DE0000
7C0000
300000
ENDCHAR
STARTCHAR C100
ENCODING 100
SWIDTH 480 0
DWIDTH 20 0
BBX 22 27 5 -1
BITMAP
7FFFFC
7FFFFC
180000
180000
180000
300000
300080
3003C0
301F80
607F00
61E700
638600
6F0E00
DC0C00
F81C00
E01800
C03800
003000
003000
003000
007000
006000
006000
006000
006000
006000
002000
ENDCHAR
STARTCHAR C101
ENCODING 101
SWIDTH 312 0
DWIDTH 13 0
BBX 15 27 5 -1
BITMAP
7FFE
7FFE
0030
0060
00C0
0180
0300
0600
0600
0C00
1800
1800
3000
3000
6000
6000
C000
C000
C000
C000
C000
C000
6000
63C0
37C0
1FC0
0F80
ENDCHAR
STARTCHAR C102
ENCODING 102
SWIDTH 672 0
DWIDTH 28 0
BBX 29 27 6 -1
BITMAP
FFFFFFF8
FFFFFFF8
30000000
0C000000
06000000
01007000
0080FC00
0040CE00
01E0C300
03C18100
07018100
0E01B900
1C01FF00
38037E00
F0037C00
7C033800
0E030000
03060000
01860000
00C60000
00660000
006C0000
003C0000
001C0000
001C0000
00180000
00080000
ENDCHAR
STARTCHAR C103
ENCODING 103
SWIDTH 552 0
DWIDTH 23 0
BBX 24 28 6 -1
BITMAP
000010
00001F
01F03F
07FC30
1F0630
3C0130
7001F0
FF00E0
FF8060
F04060
4060E0
0060C0
00E0C0
01C0C0
0381C0
070180
0E0180
1C0180
080380
000300
000300
000300
000700
000600
000600
000600
000E00
000400
ENDCHAR
STARTCHAR C104
ENCODING 104
SWIDTH 504 0
DWIDTH 21 0
BBX 22 29 6 -3
BITMAP
FFFFFC
FFFFFC
010000
010000
01FC00
07FE00
0F8100
1F0180
1C0180
000180
000380
000300
000700
000E00
003C00
80F800
FFE000
3F8000
180000
0E0000
030000
018000
00C000
006000
003000
001800
000C00
000400
000600
ENDCHAR
STARTCHAR C105
ENCODING 105
SWIDTH 264 0
DWIDTH 11 0
BBX 28 39 5 -1
BITMAP
000FE000
003FF800
00F80E00
01E00300
03800080
07000040
06000060
0E000020
0C000030
0C000010
0C000000
04000000
7FF80000
7FF80000
03000000
03000000
06000000
06000000
06000000
06000000
0C000000
0C000000
0C000000
0C000000
18000000
18000000
18000000
18000000
30000000
30000000
30000000
30000000
60000000
60000000
60000000
60000000
C0000000
C0000000
40000000
ENDCHAR
STARTCHAR C106
ENCODING 106
SWIDTH 696 0
DWIDTH 29 0
BBX 30 26 6 0
BITMAP
FFFFFFFC
FFFFFFFC
00300000
00F00000
01D00000
C31C0180
860FFFC0
8403FF80
8C000300
88000200
88060600
880F0400
8C390400
87F18C00
83C08800
C0008800
40008800
60019800
20011000
30031000
1C0E1000
0FFC1000
03F01000
00001000
00001000
00001000
ENDCHAR
STARTCHAR C107
ENCODING 107
SWIDTH 696 0
DWIDTH 29 0
BBX 30 26 6 0
BITMAP
FFFFFFFC
FFFFFFFC
00006000
00006000
0001F800
0007FE00
001CC700
0070C300
01C18380
07018180
0C018180
38018180
60030180
E0031D00
70033F00
1C033E00
0E063C00
03063800
01860000
00C60000
006C0000
006C0000
003C0000
001C0000
00180000
00080000
ENDCHAR
STARTCHAR C108
ENCODING 108
SWIDTH 624 0
DWIDTH 26 0
BBX 27 27 6 -1
BITMAP
FFFFFFE0
FFFFFFE0
00000600
00000600
00000600
00000C00
00000C00
07838C00
1FC7CC00
386C7800
60383800
C0101800
80101800
8E103000
9F003000
DF003000
7F003000
3E006000
00006000
00006000
00006000
0000C000
0000C000
0000C000
0000C000
00018000
00008000
ENDCHAR
STARTCHAR C109
ENCODING 109
SWIDTH 552 0
DWIDTH 23 0
BBX 24 27 6 -1
BITMAP
FFFFFF
FFFFFF
700030
600030
600030
600060
200060
100060
080060
0400C0
0200C0
0300C0
0100C0
018180
018180
1F8180
3F8180
7FE300
7F7300
7E1B00
3C0B00
000E00
000600
000600
000600
000C00
000400
ENDCHAR
STARTCHAR C110
ENCODING 110
SWIDTH 528 0
DWIDTH 22 0
BBX 23 27 6 -1
BITMAP
FFFFFE
FFFFFE
000060
000060
000060
0000C0
0000C0
0000C0
0000C0
000180
000180
3F0180
7FC180
FCE300
FC3300
F81B00
700B00
000E00
000600
000600
000600
000C00
000C00
000C00
000C00
001800
000800
ENDCHAR
STARTCHAR C111
ENCODING 111
SWIDTH 672 0
DWIDTH 28 0
BBX 26 36 6 2
BITMAP
00060000
000E0000
00080000
00180000
00180000
001C0000
001F0000
000FE000
0003FE00
00007F80
000007C0
000001C0
000FF0C0
003FF8C0
00F80CC0
01E00C80
63C00D80
63E00D00
C7E01B00
C7C03E00
C3877C00
C00FF800
C01FE000
C01FC000
C01FC000
C00EC000
C0006000
C0006000
60006000
60006000
3000C000
3001C000
18078000
0E1F0000
07FE0000
01F00000
ENDCHAR
STARTCHAR C112
ENCODING 112
SWIDTH 600 0
DWIDTH 25 0
BBX 26 28 6 -1
BITMAP
00000400
000007C0
01F80FC0
07FE0C00
1E070C00
78018C00
FC01DC00
4607D800
020F3800
033C3800
03783800
07E03000
07C03000
0F003000
1C007000
00006000
00006000
00006000
0000E000
0000C000
0000C000
0000C000
0001C000
00018000
00018000
00018000
00038000
00010000
ENDCHAR
STARTCHAR C113
ENCODING 113
SWIDTH 624 0
DWIDTH 26 0
BBX 22 26 6 2
BITMAP
0000F0
0003F8
04078C
0C0E0C
060C18
031878
61D9F0
60FFC0
C03F00
C06000
C06000
C06030
C0C078
C0C1F8
C0C7D8
C0FF18
C07C18
600018
600030
600030
300060
3000E0
1803C0
0E0F80
07FE00
01F800
ENDCHAR
STARTCHAR C114
ENCODING 114
SWIDTH 504 0
DWIDTH 21 0
BBX 23 27 5 -1
BITMAP
7FFFFE
7FFFFE
000060
000060
0000E0
0007C0
001CC0
0070C0
01C0C0
070180
0C0180
380180
600180
E00300
700300
1C0300
0E0300
030600
018600
00C600
006600
003C00
383C00
7C1C00
7C1C00
7C0800
380000
ENDCHAR
STARTCHAR C115
ENCODING 115
SWIDTH 600 0
DWIDTH 25 0
BBX 26 27 6 -1
BITMAP
FFFFFFC0
FFFFFFC0
3E000C00
07000C00
01800C00
00801800
00C01800
00401800
00401800
004E3000
007F3000
0078B000
00E0F000
01C06000
83806000
CF006000
7E006000
3800C000
0000C000
0000C000
0000C000
00018000
00018000
00018000
00018000
00030000
00010000
ENDCHAR
STARTCHAR C116
ENCODING 116
SWIDTH 600 0
DWIDTH 25 0
BBX 26 24 6 2
BITMAP
FFFFFFC0
FFFFFFC0
00000000
00000000
80000000
80000000
803F8000
807FC000
80FE6000
80FE3000
C0FE1000
40FC1000
40781000
40001000
40001000
60003000
20002000
20006000
30004000
1000C000
18018000
0E070000
07FE0000
01F80000
ENDCHAR
STARTCHAR C117
ENCODING 117
SWIDTH 0 0
DWIDTH 0 0
BBX 16 13 -13 -12
BITMAP
0040
0040
3EC0
7F80
C180
81C0
FF60
7E30
0018
000C
0006
0002
0001
ENDCHAR
STARTCHAR C118
ENCODING 118
SWIDTH 624 0
DWIDTH 26 0
BBX 27 24 6 2
BITMAP
FFFFFFE0
FFFFFFE0
00000000
00000000
80000000
80000000
80F00000
81F80000
83F82000
83F87000
83F8F000
83F3D800
81FF8800
C07E0800
40000800
40001800
40001800
60003000
20007000
3000E000
1803C000
0E0F8000
07FE0000
01F80000
ENDCHAR
STARTCHAR C119
ENCODING 119
SWIDTH 0 0
DWIDTH 0 0
BBX 14 10 -2 29
BITMAP
0380
0780
8784
878C
8708
8018
8030
C0E0
7FC0
3F00
ENDCHAR
STARTCHAR C120
ENCODING 120
SWIDTH 528 0
DWIDTH 22 0
BBX 23 26 6 0
BITMAP
01E03E
03E03E
07E060
0BC060
0800E0
0807C0
061CC0
01F0C0
01C0C0
070180
0C0180
380180
600180
E00300
700300
1C0300
0E0300
030600
018600
00C600
006600
003C00
003C00
001C00
001C00
000800
ENDCHAR
STARTCHAR C121
ENCODING 121
SWIDTH 552 0
DWIDTH 23 0
BBX 24 27 6 -1
BITMAP
FFFFFF
FFFFFF
700030
1C0030
060030
010060
008060
004060
00E060
03C0C0
0780C0
1E00C0
3C00C0
700180
E00180
F80180
1E0180
070300
018300
00C300
006300
003600
1C1E00
3E1E00
3E0E00
3E0C00
1C0400
ENDCHAR
STARTCHAR C122
ENCODING 122
SWIDTH 576 0
DWIDTH 24 0
BBX 24 28 7 -1
BITMAP
000010
03E01F
1FF03F
3C1830
780830
780C30
780C70
701C60
001860
003860
0070E0
01E0C0
0F80C0
7E00C0
F001C0
7E0180
078180
01C180
006380
003300
001B00
000B00
000F00
000600
000600
000600
000E00
000400
ENDCHAR
STARTCHAR C123
ENCODING 123
SWIDTH 600 0
DWIDTH 25 0
BBX 26 1 3 12
BITMAP
FFFFFFC0
ENDCHAR
STARTCHAR C124
ENCODING 124
SWIDTH 1104 0
DWIDTH 46 0
BBX 47 1 3 12
BITMAP
FFFFFFFFFFFE
ENDCHAR
STARTCHAR C125
ENCODING 125
SWIDTH 504 0
DWIDTH 21 0
BBX 25 30 3 -4
BITMAP
1FFFFF80
1FFFFF80
00200000
003F0000
00FF8000
01F04000
03F06000
03E06000
03C0E000
0000C000
0001C000
00038000
0C0F0000
07FE0000
01F80000
00400000
00300000
00080000
00060000
0F010000
3FB98000
70FF4000
F8470000
FC430000
FC030000
F8060000
70060000
00060000
00060000
00040000
ENDCHAR
STARTCHAR C126
ENCODING 126
SWIDTH 648 0
DWIDTH 27 0
BBX 24 9 5 8
BITMAP
078000
1FC000
3FE000
707003
E03806
801C1C
000FF8
0007F0
0003C0
ENDCHAR
STARTCHAR C127
ENCODING 127
SWIDTH 984 0
DWIDTH 41 0
BBX 42 32 6 -5
BITMAP
000000000400
FFFFFE7E07C0
FFFFFFFF0FC0
000807C08C00
00080E004C00
00081C006C00
001818007800
00103F003800
00103F803800
001030401800
003070603000
0021D0603000
002798603000
803E08E03000
803808C06000
800009C06000
800009806000
C00008006000
40001800C000
40001000C000
60003000C000
20006000C000
3001C0018000
1C0780018000
0FFE00018000
03F800018000
000000030000
01C000010000
03E000000000
03E000000000
03E000000000
01C000000000
ENDCHAR
STARTCHAR C128
ENCODING 128
SWIDTH 696 0
DWIDTH 29 0
BBX 30 27 6 -1
BITMAP
FFFFFFFC
FFFFFFFC
00006000
0001F800
000FFE00
003EC700
00F0C380
03C0C180
0F00C780
3C018F80
7003CF80
701FFF00
387DB800
1DE31C00
0F830C00
0E030C00
3C030C00
3E060C00
07867C00
01C6F800
00E6F800
007CF000
003C0000
003C0000
001C0000
00180000
00180000
ENDCHAR
STARTCHAR C129
ENCODING 129
SWIDTH 552 0
DWIDTH 23 0
BBX 24 38 6 -1
BITMAP
100000
180000
0E0000
07C000
01FFC0
003FF0
000038
000008
000004
000004
000004
FFFFFF
FFFFFF
000C00
001E00
00FF80
03F9C0
0F18C0
3C18C0
701BC0
7C37C0
0E37C0
073780
03B700
01E000
01E000
00E000
01E000
07CE00
0F1F00
1C1F00
381F00
300E00
300C00
301C00
187800
0FF000
07C000
ENDCHAR
STARTCHAR C130
ENCODING 130
SWIDTH 744 0
DWIDTH 31 0
BBX 32 25 6 1
BITMAP
FFFFFFFF
FFFFFFFF
00000000
00000000
003F8000
00FFC000
43E06000
C7806F80
CF007FC0
DF00F060
CF1DC3E0
CE3F87E0
C07F0FE0
C07E0FC0
C07F0F80
C03B0700
C0018000
C0018000
60018000
60018000
30030000
30070000
181E0000
0FFC0000
07F00000
ENDCHAR
STARTCHAR C131
ENCODING 131
SWIDTH 696 0
DWIDTH 29 0
BBX 30 27 6 -1
BITMAP
FFFFFFFC
FFFFFFFC
00006000
0001F800
000FFE00
003EC700
00F0C380
03C0C180
0F00C180
3C018180
70038180
700F8F80
387D9F00
1DF31F00
0F831E00
0E030000
3C030000
3E060000
07860000
01C60000
00E60000
007C0000
003C0000
003C0000
001C0000
00180000
00180000
ENDCHAR
STARTCHAR C132
ENCODING 132
SWIDTH 672 0
DWIDTH 28 0
BBX 29 27 6 -1
BITMAP
FFFFFFF8
FFFFFFF8
000C0180
001E0180
00FF8180
07EDC300
1F18E300
78186300
E0186300
F81BE600
1E37E600
0737C600
03B78600
01F00C00
00E00C00
00E00C00
007C0C00
00FF1800
01FB9800
01F8D800
01F05800
00E07000
00003000
00003000
00003000
00006000
00002000
ENDCHAR
STARTCHAR C133
ENCODING 133
SWIDTH 840 0
DWIDTH 35 0
BBX 37 27 5 -1
BITMAP
7FFFFFFFF8
7FFFFFFFF8
0000000000
0001F80000
0007FC0000
000F060000
001C060000
0038067C00
00700FFE00
00600F8300
30FC0E1F00
20FE0C3F00
60FE1C7F00
40FE187E00
C07C187C00
8038183800
8000380000
8000300000
8000300000
8000300000
C000300000
7000700000
3FFFE00000
0FFFE00000
0000600000
0000E00000
0000400000
ENDCHAR
STARTCHAR C134
ENCODING 134
SWIDTH 648 0
DWIDTH 27 0
BBX 31 27 3 -1
BITMAP
1FFFFFFE
1FFFFFFE
00000C00
00003C00
0001FF00
000FDB80
003E19C0
00F030C0
01C030C0
01F033C0
003C37C0
000E6780
00076700
0003E000
0001E000
0000C000
0000C000
0F8CC000
3FDEC000
70738000
F8218000
FC218000
FC018000
7C030000
38030000
00030000
00020000
ENDCHAR
STARTCHAR C135
ENCODING 135
SWIDTH 816 0
DWIDTH 34 0
BBX 35 27 6 -1
BITMAP
FFFFFFFFE0
FFFFFFFFE0
08020C0000
0C060C0000
0C040C0000
3FC4180000
7FE6180000
FC33FF8000
FC11FFE000
F818307000
7018301800
0018300800
003830C800
003061F800
03F063F000
07E063E000
0FF863C000
0FDCC18000
0F86C00000
0702C00000
0001C00000
0001800000
0001800000
0001800000
0001800000
0003800000
0001000000
ENDCHAR
STARTCHAR C136
ENCODING 136
SWIDTH 744 0
DWIDTH 31 0
BBX 32 30 6 -4
BITMAP
FFFFFFFF
FFFFFFFF
080C3000
0C083000
1F083000
3FC86000
7EEC7E00
7C27FF00
7833E180
3030C0C0
0030C040
0070C740
0060CFC0
03E19F80
07E19F80
0FF18E00
0FD98000
0F8F0000
07070000
00070000
1F870000
3FE60000
7E760000
7E1E0000
7C0E0000
380C0000
000C0000
000C0000
000C0000
00080000
ENDCHAR
STARTCHAR C137
ENCODING 137
SWIDTH 840 0
DWIDTH 35 0
BBX 36 33 6 -7
BITMAP
FFFFFFFFF0
FFFFFFFFF0
0804180300
0C04180300
1F04300300
3FC4300600
7EE63F0600
7E23FF8600
7C31E0C600
3830606C00
0030602C00
003063AC00
0070C7EC00
03E0CFD800
07E0CFD800
0FF8C71800
0FDD801800
0F87803000
0703803000
0003803000
0003803000
003F806000
007FE06000
00FF786000
00FE1C6000
00FC06C000
007803C000
000001C000
000001C000
0000018000
0000018000
0000018000
0000010000
ENDCHAR
STARTCHAR C138
ENCODING 138
SWIDTH 672 0
DWIDTH 28 0
BBX 29 27 6 -1
BITMAP
FFFFFFF8
FFFFFFF8
00060180
000E0180
007F8180
01FDC300
078CE300
1E186300
781BE300
781FE600
1E1FC600
0737C600
03B38600
01F00C00
00F78C00
00FFCC00
007C2C00
40701800
61E01800
63C01800
3F001800
1E003000
00003000
00003000
00003000
00006000
00002000
ENDCHAR
STARTCHAR C139
ENCODING 139
SWIDTH 648 0
DWIDTH 27 0
BBX 26 28 8 -1
BITMAP
00004000
03E0FFC0
0FF0FFC0
3E08C000
7004C000
E0078000
F8038000
FC038000
02018000
03030000
03030000
07030000
06030000
1E060000
0C07E000
001FE000
00FE6000
03EC4000
0F0C4000
1C0C4000
1F0CC000
03988000
01D88000
00F98000
00790000
00710000
00310000
00300000
ENDCHAR
STARTCHAR C140
ENCODING 140
SWIDTH 552 0
DWIDTH 23 0
BBX 24 28 6 -1
BITMAP
000010
01F81F
07FC3F
1F0230
380130
7001B0
7C00E0
7E0060
210060
018060
0180C0
0180C0
0380C0
0700C0
020180
000180
000180
1F8180
3FE300
7C7300
FC1B00
FC0B00
F80E00
700600
000600
000600
000C00
000400
ENDCHAR
STARTCHAR C141
ENCODING 141
SWIDTH 552 0
DWIDTH 23 0
BBX 23 28 7 -1
BITMAP
000020
03F03E
0FF87E
3E0460
700260
E00360
F801C0
FC00C0
4200C0
0300C0
030180
030180
070180
0E0180
040300
000F00
003F00
00F300
03C600
0F0600
0F8600
01C600
00EC00
007C00
003C00
003C00
001800
001800
ENDCHAR
STARTCHAR C142
ENCODING 142
SWIDTH 696 0
DWIDTH 29 0
BBX 30 28 6 -1
BITMAP
00001000
01F01FFC
07FC3FFC
1F0630C0
3C0130C0
7001B0C0
FC00E180
FE006180
41006180
01806180
0180C300
0180C300
0380C300
0700C300
02018600
00018600
00018600
000F8600
001F8C00
003FCC00
003FEC00
003FAC00
003F3800
001E1800
00001800
00001800
00003000
00001000
ENDCHAR
STARTCHAR C143
ENCODING 143
SWIDTH 576 0
DWIDTH 24 0
BBX 27 28 4 -1
BITMAP
00000200
003F03E0
00FF87E0
03E04600
07002600
0E003600
0F801C00
0FC00C00
04200C00
00300C00
00301800
00301800
00701800
00E01800
00403000
00003000
0FC03000
3FE73000
703FE000
C018E000
B810E000
FC106000
FC00C000
FC00C000
7800C000
0000C000
00018000
00008000
ENDCHAR
STARTCHAR C144
ENCODING 144
SWIDTH 528 0
DWIDTH 22 0
BBX 23 29 6 -3
BITMAP
FFFFFE
FFFFFE
1C0060
180060
380060
3000C0
3020C0
1FF0C0
0FE0C0
03C180
0F0180
1E0180
380180
3E0300
038300
00C300
002300
001600
0F8E00
3FCE00
7E6E00
FE3E00
FE1C00
FC1C00
781C00
001800
001800
001800
001000
ENDCHAR
STARTCHAR C145
ENCODING 145
SWIDTH 600 0
DWIDTH 25 0
BBX 26 27 6 -1
BITMAP
FFFFFFC0
FFFFFFC0
00030180
00030300
0FC18600
3FF0FC00
7C387800
7C0C0000
7C040000
38040000
00060000
001E0000
007F8000
03EDC000
0F8CE000
1E186000
F8186000
F8186000
1E1BE000
0737E000
03B7C000
01F7C000
00F38000
00E00000
00600000
00600000
00600000
ENDCHAR
STARTCHAR C146
ENCODING 146
SWIDTH 1224 0
DWIDTH 51 0
BBX 50 29 8 -1
BITMAP
001F0000000000
003F8000000000
1071FFFFFFFFC0
1861FFFFFFFFC0
18C30806180000
CECF0C04180000
C7FE0C04180000
C1F83F84180000
C1807FC6300000
C183FC63FF0000
C307FC21FFC000
C30FF83030E000
C33DF030603000
C3F98030601000
C1E18030619000
C001807063F000
600303E0C7E000
600307E0C7C000
30070FF8C78000
300E0FDCC30000
183C0F87800000
0FF80703800000
07E00003800000
00000003800000
00000003000000
00000003000000
00000003000000
00000003000000
00000002000000
ENDCHAR
STARTCHAR C147
ENCODING 147
SWIDTH 792 0
DWIDTH 33 0
BBX 34 29 6 -1
BITMAP
0003800000
000FC00400
FC1E6007C0
FE18600FC0
0630C00C00
33B3C00C00
31FF800C00
307E001800
3060001800
30C1801800
30C7C01800
30CFE03000
30FCF03000
3078D83000
1801983000
1803986000
1807186000
0C1E306000
07FC606000
03F0C0C000
000180C000
0003C0C000
0001F0C000
0000398000
00000D8000
0000078000
0000038000
0000030000
0000010000
ENDCHAR
STARTCHAR C148
ENCODING 148
SWIDTH 576 0
DWIDTH 24 0
BBX 27 27 4 -1
BITMAP
3FFFFFE0
3FFFFFE0
02060300
02060300
07830600
0FC1FC00
1F20FC00
1F101E00
1F187C00
0E18FC00
001BF800
003FB000
003E7000
007C6000
00F06000
01E0E000
0780C000
0F00C000
9C00C000
F801C000
70018000
00018000
00018000
00018000
00018000
00018000
00008000
ENDCHAR
STARTCHAR C149
ENCODING 149
SWIDTH 888 0
DWIDTH 37 0
BBX 37 29 7 -1
BITMAP
000F000000
003F800000
1079FFFFF8
1861FFFFF8
18C3700180
4ECFE00180
C7FEC00180
C1F9C00300
C181800300
C183800300
C307838300
C30FFF8600
C33DBF0600
C3F98E0600
C1E1BC0600
C001F80C00
6003E00C00
6003C00C00
6007E00C00
300E381800
183C0C1800
0FF8021800
07E0011800
000000B000
000000F000
0000007000
0000007000
0000006000
0000002000
ENDCHAR
STARTCHAR C150
ENCODING 150
SWIDTH 648 0
DWIDTH 27 0
BBX 27 29 7 -1
BITMAP
000E0000
003F0000
1079FFE0
1861FFE0
18C30600
4ECF0600
C7FE0600
C1F80C00
C1820C00
C3070C00
C30F8C00
C33D9800
C3F99800
61E19800
60031800
60073000
300E3000
183C3000
0FF83000
07E06000
03F06000
07FC6000
07FE6000
07F3C000
07E1C000
03C0C000
0000C000
00018000
00008000
ENDCHAR
STARTCHAR C151
ENCODING 151
SWIDTH 744 0
DWIDTH 31 0
BBX 32 26 6 0
BITMAP
FFFFFFFF
FFFFFFFF
18030000
18070000
38070000
3C070000
37078000
33FCC000
60FC7000
603C3C00
603C0F80
607803C0
60F800C0
C1D80180
C3980380
CF300300
DE300600
F8300E00
70301C00
00603800
00607000
0061E000
0063C000
006F0000
007E0000
00380000
ENDCHAR
STARTCHAR C152
ENCODING 152
SWIDTH 744 0
DWIDTH 31 0
BBX 32 27 6 -1
BITMAP
FFFFFFFF
FFFFFFFF
18060000
18070000
38070000
3C070000
370EFE00
33FC7F00
60FC3880
603C30C0
603C70C0
6078E1C0
60F9C180
C1CF8380
C3870700
CF001E00
DE007C00
F80FF000
7007C000
00010000
00008000
00004000
00002000
00001000
00001800
00000800
00000400
ENDCHAR
STARTCHAR C153
ENCODING 153
SWIDTH 720 0
DWIDTH 30 0
BBX 31 30 6 -4
BITMAP
FFFFFFFE
FFFFFFFE
18060000
38060000
38060000
3E0E0000
378DFE00
61FCFF00
607C3180
603C7180
6078E380
60F9C300
C1CF8700
C3871E00
CF007C00
DE0FF000
F807C000
70030000
00008000
00004000
00002000
00001000
0000F800
0007F800
003F3400
003C6000
000F6000
0003E000
0001E000
0000C000
ENDCHAR
STARTCHAR C154
ENCODING 154
SWIDTH 648 0
DWIDTH 27 0
BBX 30 27 4 -1
BITMAP
3FFFFFFC
3FFFFFFC
03000000
03000000
03C00000
03F80000
063E0000
06060000
060C0000
061C0000
0C380000
0CF83C00
0FFC7E00
0FE7C200
07878200
270E1E00
67CC3C00
47CC3C00
C38C3C00
800E0400
801F0800
8019F800
C018F000
7FF80000
3FF80000
00380000
00100000
ENDCHAR
STARTCHAR C155
ENCODING 155
SWIDTH 936 0
DWIDTH 39 0
BBX 40 26 6 0
BITMAP
FFFFFFFFFF
FFFFFFFFFF
01C0000000
03E0000000
0638000000
4C1FFF0000
4807FF0000
C8000E0000
88701B0000
CFF831C000
478C20FFC0
400C603F80
400C400180
601C408100
3834638300
1FE43FC200
07C41C4200
0004004600
0006004400
000200C400
0003008C00
0001C18800
0000FF0800
00003E0800
0000000800
0000000800
ENDCHAR
STARTCHAR C156
ENCODING 156
SWIDTH 936 0
DWIDTH 39 0
BBX 40 32 6 -6
BITMAP
FFFFFFFFFF
FFFFFFFFFF
01C0000000
03E0000000
0638000000
4C1FFF0000
4807FF0000
C8000E0000
88701B0000
CFF831C000
478C20FFC0
400C603FC0
400C400080
601C408080
3834638180
1FE43FC100
07C41C4300
0004004200
0006004200
000200C600
0003008400
0001C18C00
0000FF3C00
00003EFC00
000003CC00
0000070C00
00000C0C00
00001F1800
000003D800
000000F800
0000003800
0000001000
ENDCHAR
STARTCHAR C157
ENCODING 157
SWIDTH 1200 0
DWIDTH 50 0
BBX 51 28 6 -1
BITMAP
00000000000200
FFFFFFFFFF03E0
FFFFFFFFFF87E0
00180000018600
00380000018600
00680000070600
00CC00001F0C00
01870100FB0C00
4103FF03E30C00
4300FF0F060C00
4200021C061800
42000678061800
420305E0061800
430F0F800C1800
41FD8F800C3000
40F08FE00C3000
600098780C3000
2000901C1C3000
2001900E1C6000
300110071E6000
180330039E6000
0E0E2001B36000
07FC2001F3C000
01F02000F1C000
00006000F1C000
0000400061C000
00004000608000
00000000600000
ENDCHAR
STARTCHAR C158
ENCODING 158
SWIDTH 744 0
DWIDTH 31 0
BBX 32 23 6 3
BITMAP
FFFFFFFF
FFFFFFFF
00380000
006C0000
00CC0000
018C0380
03060FC0
82061C60
86033020
84036020
8403C040
840783C0
861E0780
83FB0780
81E10780
C0010080
40018100
4003C300
60027E00
30063C00
1C1C0000
0FF80000
03E00000
ENDCHAR
STARTCHAR C159
ENCODING 159
SWIDTH 720 0
DWIDTH 30 0
BBX 31 31 6 -5
BITMAP
FFFFFFFE
FFFFFFFE
00700000
00F00000
01980000
03080000
060C0000
84070080
8C03FFC0
8800FF80
88000100
880C0300
8C3C0200
87F60200
83C20600
C0020400
40020C00
40060800
60041800
300C7800
1C39F000
0FF79000
03DE1000
00383000
00602000
00782000
001E2000
00072000
0001E000
0000E000
00002000
ENDCHAR
STARTCHAR C161
ENCODING 161
SWIDTH 600 0
DWIDTH 25 0
BBX 25 33 3 -6
BITMAP
00001F00
00F07F80
03F8E080
07858080
07870780
07860F00
078E0F00
071C0F00
003C0100
00F20200
03E38600
0781FC00
0E007800
1C060000
380F0000
301D8000
30398000
30F18000
1FE38000
0F8F0000
003E0000
03F80000
FFE00000
7E000000
07C00000
00F00000
00180000
00060000
00030000
00008000
00004000
00006000
00002000
ENDCHAR
STARTCHAR C162
ENCODING 162
SWIDTH 696 0
DWIDTH 29 0
BBX 26 29 6 -1
BITMAP
00000F00
00003F80
01F0F0C0
07FBC040
0E0F0040
180C0780
1E180F80
1E300F80
1E680F80
1CC80080
01840080
03060100
86038300
8C01FE00
88007C00
88000C00
8C1E1800
87FE1800
83E33000
C0013000
40013000
60016000
30036000
1C0E6000
0FFC6000
03F0C000
0000C000
0000C000
00004000
ENDCHAR
STARTCHAR C163
ENCODING 163
SWIDTH 624 0
DWIDTH 26 0
BBX 23 27 6 -1
BITMAP
001C3C
007E7E
00F3C2
01C782
13861C
33C63C
63C63C
418E3C
400E04
400F08
601DF8
3FF8F0
1FF800
001800
007980
03F180
0FB300
3C3300
F03300
F86300
1C6600
0E7600
077E00
03DE00
01CC00
01CC00
00C000
ENDCHAR
STARTCHAR C164
ENCODING 164
SWIDTH 576 0
DWIDTH 24 0
BBX 27 41 4 -4
BITMAP
04000000
06000000
03800000
01F00000
007FF800
000FFE00
00000700
00000100
00000080
00000080
00000080
3FFFFFE0
3FFFFFE0
00C00000
00C00000
01800000
01800000
01800000
03000000
03000000
03007000
0300F800
0600F800
0600F800
06007000
06006000
0C00E000
0C01C000
0C038000
18070000
181E0000
183F0000
98F10000
8FE10000
87830000
C0020000
40060000
600C0000
30380000
1FF00000
0FC00000
ENDCHAR
STARTCHAR C165
ENCODING 165
SWIDTH 504 0
DWIDTH 21 0
BBX 23 42 5 -5
BITMAP
200000
300000
1C0000
0F8000
03FF80
007FE0
000070
000010
000008
000008
000008
7FFFFE
7FFFFE
0C0000
0C0000
0C0000
0C0000
180000
180000
180700
180F80
300F80
300F80
300700
600300
600600
600E00
601C00
C03800
C0F000
C1E000
C78800
7F1C00
3CF800
03F800
0F1800
0F9800
01F000
00F000
007000
007000
006000
ENDCHAR
STARTCHAR C166
ENCODING 166
SWIDTH 888 0
DWIDTH 37 0
BBX 38 25 6 1
BITMAP
FFFFFFFFFC
FFFFFFFFFC
00C0008000
0080018000
0080010000
0088010000
0198010000
013C030000
41E4020400
41C4020C00
4004023E00
400C067200
600807C200
2018038200
3078020200
1FE8000200
0F8C000600
0004000400
0004000C00
0006000C00
0002001800
0003007000
0001C1E000
0000FF8000
00003E0000
ENDCHAR
STARTCHAR C167
ENCODING 167
SWIDTH 768 0
DWIDTH 32 0
BBX 32 37 7 0
BITMAP
00200000
00300000
001C0000
000F8000
0003FFC0
00007FF0
00000038
00000008
00000004
00000004
00000004
03C3FFFF
0FE3FFFF
1E130000
381E0000
700E0000
700E0000
F8060000
F80C0000
F80C0000
700C0380
000C07C0
00180FC0
00180FC0
00180780
00180180
00180300
00300300
00300600
00300E00
00301C00
00603800
00607000
0061E000
0067C000
003F0000
001C0000
ENDCHAR
STARTCHAR C168
ENCODING 168
SWIDTH 600 0
DWIDTH 25 0
BBX 19 39 7 1
BITMAP
000100
000780
000700
000600
000E00
000C00
000C00
000C00
001C00
001800
001800
001800
001800
03D800
0FF800
1E1C00
380C00
3C0C00
7C0E00
7C1F00
781900
003880
0030C0
007040
006060
00E060
01C060
038060
0700E0
0E00C0
3C01C0
780180
E00380
C00700
C00E00
C03C00
40F800
3FE000
1F8000
ENDCHAR
STARTCHAR C169
ENCODING 169
SWIDTH 624 0
DWIDTH 26 0
BBX 22 25 6 1
BITMAP
00F030
03F878
078CEC
0F07CC
6F878C
7F870C
CF830C
C70018
C00018
C00030
C00770
C00FE0
C01FC0
C01FC0
C01F60
C00E30
600030
600030
600030
300060
3000E0
1803C0
0E0F80
07FE00
01F800
ENDCHAR
STARTCHAR C170
ENCODING 170
SWIDTH 528 0
DWIDTH 22 0
BBX 24 28 5 -1
BITMAP
000010
007C1F
01FE3F
03C130
0700B0
0E00F0
1E0060
1F0060
1F0060
1F0060
0E00C0
0000C0
0000C0
0000C0
07E180
1FF180
3C0980
700580
F00300
F80300
F80300
F80300
700600
000600
000600
000600
000C00
000400
ENDCHAR
STARTCHAR C171
ENCODING 171
SWIDTH 648 0
DWIDTH 27 0
BBX 27 28 7 -1
BITMAP
00008000
03E1FFE0
0FF1FFE0
1E098600
380F0600
70070600
78030C00
7C030C00
FC060C00
7C060C00
38061800
00061800
000C1800
000C1800
000C3000
000C3000
007C3000
00FE3000
01FB6000
01F96000
01F1E000
00E0E000
0000C000
0000C000
0000C000
0000C000
00018000
00008000
ENDCHAR
STARTCHAR C172
ENCODING 172
SWIDTH 576 0
DWIDTH 24 0
BBX 25 25 6 1
BITMAP
FFFFFF80
FFFFFF80
00000000
00000000
001FC000
00FFE000
03F03000
67803000
6F803000
6F806000
6F8CE000
6F1FC000
603F8000
603F0000
603F0000
601B0000
60018000
60018000
30018000
30018000
18030000
18070000
0C1E0000
07FC0000
03F00000
ENDCHAR
STARTCHAR C173
ENCODING 173
SWIDTH 552 0
DWIDTH 23 0
BBX 24 30 6 -4
BITMAP
FFFFFF
FFFFFF
000000
003F80
01FFC0
03E060
670060
6F80C0
6F81C0
6F9F80
673F00
607E00
607F00
603980
300180
300180
300300
180700
0C1E00
07FC00
03FC00
00FC00
07EC00
0F0C00
0F9800
01D800
00F800
007800
003000
001000
ENDCHAR
STARTCHAR C174
ENCODING 174
SWIDTH 624 0
DWIDTH 26 0
BBX 25 28 8 -1
BITMAP
00000800
0E080F80
3F181F80
713C1800
F1F41800
F1E61800
F0C63800
E0CE3000
000C3000
001C3000
00387000
00F06000
07C06000
3F006000
7800E000
3F00C000
0380C000
00E0C000
0031C000
00198000
000D8000
00058000
00038000
00030000
00030000
00030000
00070000
00020000
ENDCHAR
STARTCHAR C175
ENCODING 175
SWIDTH 576 0
DWIDTH 24 0
BBX 25 27 6 -1
BITMAP
FFFFFF80
FFFFFF80
0007C000
400FE000
601F3000
203F1000
303F1000
103E1000
181C1000
0C003000
04002000
06006000
0300C000
01C38000
00FF8000
003D8000
07830000
1FE30000
3E730000
7E1B0000
7E0E0000
7C0E0000
38060000
00060000
000C0000
000C0000
00040000
ENDCHAR
STARTCHAR C176
ENCODING 176
SWIDTH 600 0
DWIDTH 25 0
BBX 26 27 6 -1
BITMAP
FFFFFFC0
FFFFFFC0
00000000
0007E000
600FF000
201F9800
301F8800
101F0800
180E0800
08000800
0C001800
04001000
06003000
03006000
01C1C000
00FFC000
003F8000
007F8000
01F18000
03818000
03E30000
00730000
003B0000
001F0000
000E0000
000E0000
00060000
ENDCHAR
STARTCHAR C177
ENCODING 177
SWIDTH 744 0
DWIDTH 31 0
BBX 32 27 6 -1
BITMAP
FFFFFFFF
FFFFFFFF
0003E030
2007F030
200F9830
201F8860
301F8860
101F0860
180E0860
0C0018C0
040010C0
060030C0
030060C0
01C1C180
00FF8180
003E0180
001F0180
003FE300
007EF300
007E1B00
007C0B00
00380E00
00000600
00000600
00000600
00000C00
00000400
ENDCHAR
STARTCHAR C178
ENCODING 178
SWIDTH 648 0
DWIDTH 27 0
BBX 29 27 5 -1
BITMAP
7FFFFFF8
7FFFFFF8
00000000
0000FC00
0003FE00
00078300
000E0300
001C0300
00380700
10300600
307C0600
207E0600
607E0E00
407E0C00
C07C0C00
80380C00
80001C00
80001800
80001800
80001800
C0003800
70003000
3FFFF000
0FFFF000
00003000
00007000
00002000
ENDCHAR
STARTCHAR C179
ENCODING 179
SWIDTH 792 0
DWIDTH 33 0
BBX 35 27 5 -1
BITMAP
7FFFFFFFE0
7FFFFFFFE0
0000000000
0001F00000
0007F80000
000F0C3800
001C0C7C00
00380CFE00
00701CFE00
006018FE00
30F8187600
20FC180C00
60FC380C00
40FC381800
C0F8387000
80703FE000
8000378000
8000700000
8000600000
8000600000
C000600000
7000E00000
3FFFC00000
0FFFC00000
0000C00000
0001C00000
0000800000
ENDCHAR
STARTCHAR C180
ENCODING 180
SWIDTH 864 0
DWIDTH 36 0
BBX 38 28 5 -1
BITMAP
0000000040
7FFF87E07C
7FFF9FF0FC
18007C08C0
1800E004C0
1801C006C0
1801800380
3003F00380
3007F80180
301E040180
3036060300
60EC060300
618C060300
67180E0300
6C181C0600
D830180600
F030000600
E030000600
C060000C00
0060000C00
0060000C00
0060000C00
00C0001800
00C0001800
00C0001800
00C0001800
00C0003000
0080001000
ENDCHAR
STARTCHAR C181
ENCODING 181
SWIDTH 840 0
DWIDTH 35 0
BBX 37 27 5 -1
BITMAP
7FFFFFFFF8
7FFFFFFFF8
1800700180
1800E00180
1800C00180
1801C00300
3003800300
3007800300
301E838300
303C7F8600
60EC3F0600
618C1E0600
67183C0600
6C18700C00
D830E00C00
F033C00C00
E031E00C00
C060381800
00600C1800
0060021800
00C0011800
00C000B000
00C000F000
00C0007000
00C0007000
00C0006000
0080002000
ENDCHAR
STARTCHAR C182
ENCODING 182
SWIDTH 576 0
DWIDTH 24 0
BBX 25 27 6 -1
BITMAP
FFFFFF80
FFFFFF80
30000000
30000000
60000000
60F00000
63E00000
66602000
DCC06000
F0C1E000
E0C3C000
C186C000
019D8000
01B18000
03618000
03430000
03C30000
01830000
01060000
00060000
00060000
00060000
000C0000
000C0000
000C0000
000C0000
00040000
ENDCHAR
STARTCHAR C183
ENCODING 183
SWIDTH 624 0
DWIDTH 26 0
BBX 27 27 6 -1
BITMAP
FFFFFFE0
FFFFFFE0
18000000
30000000
30000000
30000000
30000000
601E0000
60FF0000
63E30000
6F030000
DC03F000
F01FF800
E07E1000
01E61000
07863000
1E0C2000
380C2000
3C0C2000
0F0C6000
03984000
01D84000
00F8C000
00788000
00708000
00308000
00300000
ENDCHAR
STARTCHAR C184
ENCODING 184
SWIDTH 528 0
DWIDTH 22 0
BBX 23 27 6 -1
BITMAP
FFFFFE
FFFFFE
180000
300000
300000
300000
300000
600F00
607F80
61F180
678180
DE0180
F80F80
E03F00
01F300
07C300
0F0300
3C0600
3E0600
078600
01C600
00EC00
007C00
003C00
003C00
001800
001800
ENDCHAR
STARTCHAR C185
ENCODING 185
SWIDTH 624 0
DWIDTH 26 0
BBX 27 27 6 -1
BITMAP
FFFFFFE0
FFFFFFE0
18000000
18000000
18040000
303C0000
30EC0000
33980000
36180000
7C300000
70300000
60300000
00600000
81E08000
83E1C000
87E3C000
87EF6000
87FE2000
83F82000
C0006000
40006000
4000C000
6001C000
30078000
1C1F0000
0FFC0000
03F00000
ENDCHAR
STARTCHAR C186
ENCODING 186
SWIDTH 624 0
DWIDTH 26 0
BBX 27 27 6 -1
BITMAP
FFFFFFE0
FFFFFFE0
18000000
18000000
18040000
303C0000
30EC0000
33980000
36180000
7C300000
70300000
60300000
00600000
01E1C000
03E3E000
C7E72000
87FE2000
87FC6000
83F06000
80004000
80004000
C0004000
701CC000
3FFFC000
0FE38000
00008000
00008000
ENDCHAR
STARTCHAR C187
ENCODING 187
SWIDTH 552 0
DWIDTH 23 0
BBX 25 27 5 -1
BITMAP
7FFFFF80
7FFFFF80
18001800
18001800
30001800
30023000
300E3000
303E3000
60EC3000
638C6000
66186000
7C186000
F0186000
E030C000
C030C000
0030C000
0060C000
00618000
03E18000
07F98000
0FFD8000
0FE70000
0FC30000
07830000
00030000
00060000
00020000
ENDCHAR
STARTCHAR C188
ENCODING 188
SWIDTH 504 0
DWIDTH 21 0
BBX 25 29 3 -3
BITMAP
003C0F80
007C1F80
00FC1800
00B87800
00C3F800
007FB000
003C3000
00F03000
03C03000
07006000
07C06000
00F06000
00386000
001CC000
000EC000
0007C000
0003C000
00038000
1FC18000
3FF18000
7C398000
FC0F0000
FC070000
F8070000
70070000
00060000
00060000
00060000
00040000
ENDCHAR
STARTCHAR C189
ENCODING 189
SWIDTH 912 0
DWIDTH 38 0
BBX 39 27 6 -1
BITMAP
03E01FFFFE
07E03FFFFE
0FE0300060
0BC0600060
0801E001E0
0C07E007C0
071E601EC0
01F8C078C0
01E0C1E0C0
0780C78180
1E00DE0180
3801F80180
F001E00180
E001E00300
F801F80300
1E031E0300
0703070300
0383038600
01C301C600
00E600E600
0066006600
0076007C00
0036003C00
003C003C00
001C001C00
001C001800
0018001800
ENDCHAR
STARTCHAR C190
ENCODING 190
SWIDTH 768 0
DWIDTH 32 0
BBX 33 37 6 0
BITMAP
0010000000
0018000000
000E000000
0007C00000
0001FFE000
00003FF800
0000001C00
0000000400
0000000200
0000000200
0000000200
FFFFFFFF80
FFFFFFFF80
0003000000
0003000000
0003000000
0007000000
0F06000000
3FC6000000
7CE6000000
FC3E01C000
FC1C03E000
F81C07E000
701C07E000
001C03C000
001800C000
0018018000
0030018000
0030030000
0030070000
00300E0000
00601C0000
0060380000
0060F00000
0063E00000
003F800000
001E000000
ENDCHAR
STARTCHAR C191
ENCODING 191
SWIDTH 624 0
DWIDTH 26 0
BBX 28 25 5 1
BITMAP
7FFFFFF0
7FFFFFF0
00060000
00060000
0F060000
3FCE0000
7CEC0000
FC3C0000
F81C1000
701C7000
0018F800
001B8800
401F0800
401C0800
40000800
40000800
40000800
60001800
20001000
30003000
10006000
1801C000
0E078000
07FE0000
01F80000
ENDCHAR
STARTCHAR C192
ENCODING 192
SWIDTH 624 0
DWIDTH 26 0
BBX 27 27 6 -1
BITMAP
FFFFFFE0
FFFFFFE0
00000600
00000600
00000600
00000600
03C00C00
07E00C00
8FF01800
CFDC3800
4F8FF000
4703E000
400F8000
401FC000
403FE000
603FB000
203F9000
203F1000
301E1000
10001000
18003000
08002000
0C006000
0600C000
03838000
01FF0000
007C0000
ENDCHAR
STARTCHAR C193
ENCODING 193
SWIDTH 600 0
DWIDTH 25 0
BBX 26 29 6 -3
BITMAP
FFFFFFC0
FFFFFFC0
00006000
00006000
00006000
1E00C000
3F00C000
7F818000
7EE38000
7C7F0000
381E0000
003F8000
01FFC000
43E06000
67006000
6F80C000
6F9DC000
6FBF8000
677F0000
607E0000
607F0000
60398000
60018000
60018000
30030000
30070000
181E0000
0FFC0000
07F00000
ENDCHAR
STARTCHAR C194
ENCODING 194
SWIDTH 600 0
DWIDTH 25 0
BBX 26 30 6 -4
BITMAP
FFFFFFC0
FFFFFFC0
00000C00
00000C00
00000C00
03801800
07E01800
0FF03000
CFD87000
4F8FE000
4707C000
400FE000
601FB000
203F9000
203F9000
303F1000
101E1000
18003000
0C002000
06006000
0381C000
01FF8000
007F0000
003F0000
01F30000
01F30000
003E0000
001E0000
000E0000
000E0000
ENDCHAR
STARTCHAR C195
ENCODING 195
SWIDTH 624 0
DWIDTH 26 0
BBX 28 29 5 -3
BITMAP
7FFFFFF0
7FFFFFF0
00000300
00000300
00000300
01E00600
03F00600
07FC0C00
07EE1C00
07C3F800
0381F000
0007F800
001F0C00
003C0C00
00701C00
20F01800
60F81800
40F81800
C0F83800
80703000
80003000
80007000
80006000
C0006000
70006000
3FFFE000
0FFFC000
0000C000
00004000
ENDCHAR
STARTCHAR C196
ENCODING 196
SWIDTH 600 0
DWIDTH 25 0
BBX 26 29 6 -3
BITMAP
FFFFFFC0
FFFFFFC0
00006000
00006000
00006000
1E00C000
3F00C000
7F818000
7EE38000
7C7F0000
383F0000
00FF8000
01F04000
03E06000
03806000
0000E000
0000C000
0001C000
08038000
040F0000
03FE0000
01F80000
00600000
00100000
00080000
00060000
00010000
00008000
00008000
ENDCHAR
STARTCHAR C197
ENCODING 197
SWIDTH 672 0
DWIDTH 28 0
BBX 30 27 5 -1
BITMAP
7FFFFFFC
7FFFFFFC
00030000
00030000
00060000
00060000
1F860000
3FC600C0
7C6C03C0
FC2C0F80
FC3C1980
F81C7300
7018C300
00198600
001B0600
001E0600
00380C00
00300C00
00000C00
00000C00
00001800
00001800
00001800
00001800
00003000
00003000
00001000
ENDCHAR
STARTCHAR C198
ENCODING 198
SWIDTH 624 0
DWIDTH 26 0
BBX 27 27 6 -1
BITMAP
FFFFFFE0
FFFFFFE0
0000C000
0000C000
0000C000
0FC0C000
1FF18000
3E398000
7E0D8000
7E058000
7C070000
3803E000
000FF000
003F1000
00F61000
03C63000
0F062000
1C062000
1F0C2000
038C6000
01CC4000
00EC4000
0078C000
00788000
00388000
00388000
00300000
ENDCHAR
STARTCHAR C199
ENCODING 199
SWIDTH 528 0
DWIDTH 22 0
BBX 25 27 4 -1
BITMAP
3FFFFF80
3FFFFF80
00001800
00001800
00001800
00003000
03F03000
0FFC3000
1F0E3000
3F036000
3F01E000
3E00E000
1C00E000
0000C000
0000C000
0000C000
1FC0C000
3FF18000
7C398000
FC0D8000
FC058000
F8070000
70030000
00030000
00030000
00060000
00020000
ENDCHAR
STARTCHAR C200
ENCODING 200
SWIDTH 552 0
DWIDTH 23 0
BBX 24 27 6 -1
BITMAP
FFFFFF
FFFFFF
000030
000030
000030
000060
0FE060
3FF860
7C1C60
FC06C0
FC03C0
F801C0
7001C0
000180
000780
001F80
007980
01E300
078300
07C300
00E300
007600
003E00
001E00
001E00
000C00
000C00
ENDCHAR
STARTCHAR C201
ENCODING 201
SWIDTH 648 0
DWIDTH 27 0
BBX 28 27 6 -1
BITMAP
FFFFFFF0
FFFFFFF0
0000C300
00018300
0FC18300
3FF18600
7C398600
FC0F0600
FC070600
F8070C00
70070C00
00060C00
00060C00
00061800
00061800
003E1800
007E1800
00FF3000
00FDB000
00FCB000
00F8F000
00706000
00006000
00006000
00006000
0000C000
00004000
ENDCHAR
STARTCHAR C202
ENCODING 202
SWIDTH 696 0
DWIDTH 29 0
BBX 30 27 6 -1
BITMAP
FFFFFFFC
FFFFFFFC
03C000C0
006000C0
003000C0
00100180
00180180
00080180
1F080180
7F880300
F0C80300
F06BC300
E02FE300
003E1600
003C0E00
40700600
60E00600
23C00C00
1F800C00
0E000C00
00000C00
00001800
00001800
00001800
00001800
00003000
00001000
ENDCHAR
STARTCHAR C203
ENCODING 203
SWIDTH 792 0
DWIDTH 33 0
BBX 34 37 6 0
BITMAP
0010000000
001C000000
000E000000
0003C00000
0001FFC000
00003FF800
0000003C00
0000000600
0000000300
0000000100
0000000100
0000FFFFC0
0000FFFFC0
03F1800000
1FF9800000
7C0D800000
F83D800000
087F000000
0DE3000000
0FC3000000
1F0300E000
1C0301F000
180603F000
000603F000
000601E000
0006006000
000C00C000
000C00C000
000C018000
000C038000
000C070000
00180E0000
00181C0000
0018780000
0019F00000
000FC00000
0007000000
ENDCHAR
STARTCHAR C204
ENCODING 204
SWIDTH 648 0
DWIDTH 27 0
BBX 28 28 6 -1
BITMAP
00000200
007C07F0
03FF07F0
0F838600
3E00CC00
7F01EC00
2107AC00
019F1C00
01BC1800
81F01800
83E01800
87801800
CF003000
4407B000
400FF000
401FF000
601FB000
201F9000
201F1000
300E1000
10001000
18003000
08002000
0C006000
0600C000
03838000
01FF0000
007C0000
ENDCHAR
STARTCHAR C205
ENCODING 205
SWIDTH 600 0
DWIDTH 25 0
BBX 25 28 7 -1
BITMAP
00000800
01F80F80
07FE1F80
1E071800
78019800
FC079800
440FF000
063C7000
06783000
07E03000
0FC06000
0F006000
1E006000
18006000
0000C000
0000C000
0000C000
07C0C000
1FF18000
3E398000
7E0D8000
7E058000
7C070000
38030000
00030000
00030000
00060000
00020000
ENDCHAR
STARTCHAR C206
ENCODING 206
SWIDTH 600 0
DWIDTH 25 0
BBX 29 28 3 -1
BITMAP
00000080
001F80F8
007FE1F8
01E07180
07801980
0FC07980
0040F700
0063C700
006F8300
007E0300
00F80600
00F00600
01C00600
01800600
00000C00
00F80C00
07FE0C00
1F070C00
3C019800
FE03D800
420F5800
031E7800
03783000
03F03000
07C03000
0F803000
1E006000
08006000
ENDCHAR
STARTCHAR C207
ENCODING 207
SWIDTH 600 0
DWIDTH 25 0
BBX 26 28 6 -1
BITMAP
00000400
00FC07C0
03FF0FC0
0F038C00
3C00CC00
7E03CC00
2207F800
031E3800
033C1800
03F01800
07E03000
07803000
0F003000
0C003000
00006000
00006000
0F8E6000
3FDF6000
7071C000
C021C000
F020C000
F800C000
F8018000
F8018000
70018000
00018000
00030000
00010000
ENDCHAR
STARTCHAR C208
ENCODING 208
SWIDTH 696 0
DWIDTH 29 0
BBX 30 27 6 -1
BITMAP
FFFFFFFC
FFFFFFFC
03C000C0
006000C0
003000C0
00180180
0F980180
3FC80180
F0C80180
7BE80300
1FA80300
1E0BC300
3C0FE300
301E1600
003C0E00
40700600
60E00600
23C00C00
1F800C00
0E000C00
00000C00
00001800
00001800
00001800
00001800
00003000
00001000
ENDCHAR
STARTCHAR C209
ENCODING 209
SWIDTH 672 0
DWIDTH 28 0
BBX 31 29 4 -3
BITMAP
3FFFFFFE
3FFFFFFE
01C00000
00600000
00100C00
00081F00
001C1B80
003830C0
00703040
00E03040
01C03040
01E060C0
00306780
00086F80
00046F80
0002CF00
0003C000
1F01C000
3F9DC000
60FF8000
C0638000
F0418000
F8418000
F8030000
F8030000
70030000
00030000
00060000
00020000
ENDCHAR
STARTCHAR C210
ENCODING 210
SWIDTH 696 0
DWIDTH 29 0
BBX 31 26 5 0
BITMAP
7FFFFFFE
7FFFFFFE
00180000
00780000
01F80000
079E00C0
3E37FFE0
3E31FFE0
073000C0
C3B00180
81E10180
80E78300
80EE8300
8078C600
80704600
80004400
C0004400
4000C400
60008C00
30018800
1E070800
07FE0800
01F80800
00000800
00000800
00000800
ENDCHAR
STARTCHAR C211
ENCODING 211
SWIDTH 648 0
DWIDTH 27 0
BBX 28 27 6 -1
BITMAP
FFFFFFF0
FFFFFFF0
000C0000
00180000
00780000
03F80000
0F980000
3C300300
F0300F00
F8303E00
1E306600
0761CC00
03E30C00
01E61800
01FC1800
00F01800
00E03000
00C03000
00003000
00003000
00006000
00006000
00006000
00006000
0000C000
0000C000
00004000
ENDCHAR
STARTCHAR C212
ENCODING 212
SWIDTH 648 0
DWIDTH 27 0
BBX 28 27 6 -1
BITMAP
FFFFFFF0
FFFFFFF0
00006000
0003C000
001FC000
00FCC000
03E0C000
1F018000
7C018000
6001FC00
700FFC00
383F0400
1CF30C00
0FC30800
0F030800
1C061800
38061000
3E061000
07063000
038C2000
01CC2000
00EC2000
006C6000
00784000
00384000
00384000
00300000
ENDCHAR
STARTCHAR C213
ENCODING 213
SWIDTH 528 0
DWIDTH 22 0
BBX 23 27 6 -1
BITMAP
FFFFFE
FFFFFE
000060
0003E0
001FE0
00FCC0
03E0C0
1F00C0
7C00C0
E00180
700780
383F80
1DF980
0FC300
1E0300
780300
700300
7C0600
0F0600
038600
01C600
00EC00
007C00
003C00
003C00
001800
001800
ENDCHAR
STARTCHAR C214
ENCODING 214
SWIDTH 528 0
DWIDTH 22 0
BBX 25 27 4 -1
BITMAP
3FFFFF80
3FFFFF80
00001800
00003800
0003F800
001FF000
007C3000
01E03000
07803000
07C06000
00F06000
003C6000
000E6000
0007C000
0003C000
1F01C000
3F9DC000
60FF8000
C0638000
F0438000
F8418000
F8030000
F8030000
70030000
00030000
00060000
00020000
ENDCHAR
STARTCHAR C215
ENCODING 215
SWIDTH 696 0
DWIDTH 29 0
BBX 30 27 6 -1
BITMAP
FFFFFFFC
FFFFFFFC
00000000
00000000
00000000
00000000
00000C00
00001E00
00703B00
30F87100
21F8E300
61FBC300
41FF8200
C0FE0200
80780600
80000600
80000400
80000400
C0000C00
40000C00
70000800
3FFF8800
0FFFF800
00007800
00001000
00001000
00001000
ENDCHAR
STARTCHAR C216
ENCODING 216
SWIDTH 600 0
DWIDTH 25 0
BBX 28 28 4 -2
BITMAP
3FFFFFF0
3FFFFFF0
00000000
081C0000
083E1800
087E7800
087FFC00
087FC400
0C3F0400
04000C00
04000C00
06001800
03007800
01C1F000
00FFF000
003F3000
00003000
0F806000
3FCE6000
707F6000
C031E000
B820C000
FC20C000
FC00C000
7C00C000
38018000
00018000
00018000
ENDCHAR
STARTCHAR C217
ENCODING 217
SWIDTH 552 0
DWIDTH 23 0
BBX 26 27 4 -1
BITMAP
3FFFFFC0
3FFFFFC0
01800C00
01800600
01800600
0F800600
1FC00600
3FE00C00
3F301C00
3E187800
1C0FF000
0007F000
00003000
00006000
00006000
00006000
0FE06000
3FF8C000
7E1CC000
FE06C000
FE02C000
FC038000
78018000
00018000
00018000
00030000
00010000
ENDCHAR
STARTCHAR C218
ENCODING 218
SWIDTH 1008 0
DWIDTH 42 0
BBX 43 28 6 -1
BITMAP
000000000200
FFFF00FC03E0
FFFF83FF07E0
0600CF038600
0600FC00C600
1E00F801C600
3E00FC03EC00
7F81860F3C00
7FC3821E1C00
7C7F03780C00
383E03F01800
000007C01800
000007801800
00001E001800
00001C003000
000000003000
000000003000
000000003000
000000006000
000000006000
000000006000
000000006000
00000000C000
00000000C000
00000000C000
00000000C000
000000018000
000000008000
ENDCHAR
STARTCHAR C219
ENCODING 219
SWIDTH 936 0
DWIDTH 39 0
BBX 40 27 6 -1
BITMAP
FFFFFFFFFF
FFFFFFFFFF
0600C00000
0600600000
1E00600000
3E00600E00
7F00C00F80
7F81C019C0
7CC3C01860
387F601820
003E101820
0000383020
0000783060
0000E033C0
0001C037C0
0003806780
0007006700
000E006000
0007806000
0000E0C000
000030C000
000008C000
000004C000
0000038000
0000038000
0000038000
0000010000
ENDCHAR
STARTCHAR C220
ENCODING 220
SWIDTH 552 0
DWIDTH 23 0
BBX 24 27 6 -1
BITMAP
FFFFFF
FFFFFF
060030
060018
060018
3E0018
7F0018
FF8030
FCC070
F861E0
703FC0
001FC0
0003C0
001F80
007D80
01E180
078180
1E0300
1F0300
03C300
00E300
007600
003E00
001E00
001E00
000C00
000C00
ENDCHAR
STARTCHAR C221
ENCODING 221
SWIDTH 648 0
DWIDTH 27 0
BBX 28 27 6 -1
BITMAP
FFFFFFF0
FFFFFFF0
03000C00
01800600
01800600
0F800600
1F800600
3FE00C00
3F701C00
3E187800
1C0FF000
0007C000
81C04000
83E0E000
87E3E000
87EFB000
87FE1000
C3F81000
40001000
40003000
60003000
20006000
3000E000
1803C000
0E0F8000
07FF0000
01F80000
ENDCHAR
STARTCHAR C222
ENCODING 222
SWIDTH 624 0
DWIDTH 26 0
BBX 28 27 5 -1
BITMAP
7FFFFFF0
7FFFFFF0
01800C00
01800600
01800600
07800600
0FC00600
1FE00C00
1FB01C00
1F1C7800
0E0FF000
0003E000
00E0F000
21F1D800
63F38800
43FF1800
C3FE1800
81F81000
80003000
80003000
C0002000
60002000
3FFFE000
1FFFE000
00004000
00004000
00004000
ENDCHAR
STARTCHAR C223
ENCODING 223
SWIDTH 696 0
DWIDTH 29 0
BBX 30 27 6 -1
BITMAP
FFFFFFFC
FFFFFFFC
060018C0
030018C0
030018C0
3F001980
7F001980
FF803180
FCC07180
F861E300
703FC300
001FC300
0000C300
0000C600
00018600
00078600
000FC600
001FEC00
001FAC00
001F3C00
000E1C00
00001800
00001800
00001800
00001800
00003000
00001000
ENDCHAR
STARTCHAR C224
ENCODING 224
SWIDTH 576 0
DWIDTH 24 0
BBX 26 27 5 -1
BITMAP
7FFFFFC0
7FFFFFC0
03000C00
01800600
01800600
0F800600
1F800600
3FE00C00
3F701C00
3E187800
1C0FF000
0007F000
00003000
00006000
00006000
0F8E6000
3FDF6000
7071C000
C021C000
F020C000
F800C000
F8018000
F8018000
70018000
00018000
00030000
00010000
ENDCHAR
STARTCHAR C225
ENCODING 225
SWIDTH 648 0
DWIDTH 27 0
BBX 28 27 6 -1
BITMAP
FFFFFFF0
FFFFFFF0
00006000
0000C000
0000C000
0F8CC000
3FDEC000
70738000
C0238000
F0218000
F8018000
F8030000
F80F8000
707FE000
01F37000
07863800
1E061800
38061800
3E06F800
078DF800
01CDF000
00EDF000
007CE000
00380000
00380000
00380000
00180000
ENDCHAR
STARTCHAR C226
ENCODING 226
SWIDTH 600 0
DWIDTH 25 0
BBX 26 27 6 -1
BITMAP
FFFFFFC0
FFFFFFC0
00000C00
00000C00
00000C00
07E39800
1FF7D800
381C7800
60083800
78083000
7C003000
7C003000
7C003000
3BF06000
1FF86000
3E046000
70026000
FC01C000
FE01C000
6100C000
0180C000
01818000
01818000
03818000
07018000
06030000
00010000
ENDCHAR
STARTCHAR C227
ENCODING 227
SWIDTH 600 0
DWIDTH 25 0
BBX 26 30 6 -4
BITMAP
FFFFFFC0
FFFFFFC0
00001800
00001800
07C73000
1FEFB000
3838F000
60107000
78106000
7C006000
7C006000
7C006000
39F8C000
07FCC000
0F06E000
4F83E000
DFC3E000
C8C16000
C0C76000
C18FC000
C79FC000
C71F8000
601FC000
600E6000
60006000
30006000
1800C000
0E03C000
07FF8000
01FE0000
ENDCHAR
STARTCHAR C228
ENCODING 228
SWIDTH 792 0
DWIDTH 33 0
BBX 34 37 6 0
BITMAP
0010000000
001C000000
000E000000
0003C00000
0001FFC000
00003FF800
0000003C00
0000000600
0000000300
0000000100
0000000100
FFFFFFFFC0
FFFFFFFFC0
0001800000
0001800000
0003800000
0F1B000000
3FBF000000
70E7000000
C047000000
F04600E000
F80601F000
F80603F000
F80E03F000
700C01E000
000C006000
000C00C000
001800C000
0018018000
0018038000
0018070000
00300E0000
00301C0000
0030780000
0031F00000
001FC00000
000F000000
ENDCHAR
STARTCHAR C229
ENCODING 229
SWIDTH 720 0
DWIDTH 30 0
BBX 31 25 6 1
BITMAP
FFFFFFFE
FFFFFFFE
0000C000
078CC000
1FDEC000
38738000
60238000
78218000
7C018200
7C030600
7C031F00
38037900
0803E100
08038100
08000100
08000100
0C000100
04000300
04000200
06000600
02000C00
03003800
01C0F000
00FFC000
003F0000
ENDCHAR
STARTCHAR C230
ENCODING 230
SWIDTH 600 0
DWIDTH 25 0
BBX 28 27 4 -1
BITMAP
3FFFFFF0
3FFFFFF0
00000300
00FC0300
03FE7300
0703FE00
0C018E00
0B810E00
0FC10600
0FC00C00
0F800C00
07000C00
00000C00
00001800
03F81800
0FFE1800
7C071800
F807B000
FC0FB000
043C7000
06F87000
07E06000
0F806000
1F006000
1C006000
1000C000
00004000
ENDCHAR
STARTCHAR C231
ENCODING 231
SWIDTH 600 0
DWIDTH 25 0
BBX 26 27 6 -1
BITMAP
FFFFFFC0
FFFFFFC0
00000C00
00000C00
00000C00
00001800
0FC01800
3FE79800
703FD800
C0187000
80107000
B8103000
FC003000
FC006000
7C01E000
380FE000
003E6000
00F0C000
03C0C000
03E0C000
0078C000
001D8000
000F8000
00078000
00038000
00030000
00030000
ENDCHAR
STARTCHAR C232
ENCODING 232
SWIDTH 696 0
DWIDTH 29 0
BBX 30 27 6 -1
BITMAP
FFFFFFFC
FFFFFFFC
000030C0
000030C0
000030C0
07C76180
1FEFE180
3838E180
6010E180
7810C300
7C00C300
7C00C300
7C00C300
38018600
00018600
00018600
000F8600
001F8C00
003FCC00
003FEC00
003FAC00
003F3800
001E1800
00001800
00001800
00003000
00001000
ENDCHAR
STARTCHAR C233
ENCODING 233
SWIDTH 624 0
DWIDTH 26 0
BBX 29 27 4 -1
BITMAP
3FFFFFF8
3FFFFFF8
00000180
00000180
00000180
01F8F300
07FDFB00
0E070F00
18020700
17020600
1F800600
1F800600
1F000600
0E000C00
00000C00
0FC3CC00
3FF7EC00
703C3800
C0083800
B8081800
FC001800
FC003000
7C003000
38003000
00003000
00006000
00002000
ENDCHAR
STARTCHAR C234
ENCODING 234
SWIDTH 840 0
DWIDTH 35 0
BBX 36 27 6 0
BITMAP
0000200000
F0003FFFF0
FC3E7FFFF0
1E7F600000
03E1E00000
03E1E00000
0FF0F00000
1FF8F00000
3FF8D80000
7FF8CE0000
7FF9C7C000
78F181F800
0001803C00
0001800C00
0001801800
0003003800
0003003000
0003006000
000300E000
000301C000
0006038000
0006070000
00061E0000
00063C0000
0006F00000
0007E00000
0003800000
ENDCHAR
STARTCHAR C235
ENCODING 235
SWIDTH 888 0
DWIDTH 37 0
BBX 38 28 6 -1
BITMAP
0000080000
F0000FFFFC
FC0F1FFFFC
1F3F980000
03F8D80000
01F0780000
07F8380000
0FFC377800
1FFC33FC00
3FFC30E200
3FFC70C300
3C7871C300
0000638700
0000670600
00003E0E00
00001C1C00
0000007800
000003F000
00003FC000
00001E0000
0000040000
0000020000
0000010000
0000008000
0000004000
0000006000
0000002000
0000001000
ENDCHAR
STARTCHAR C236
ENCODING 236
SWIDTH 600 0
DWIDTH 25 0
BBX 26 28 6 -1
BITMAP
00000400
F00007C0
FC0F8FC0
1F3FCC00
03F86C00
01F03C00
07F83C00
0FFC1800
1FFC1800
3FFC1800
3FFC3800
3C783000
00003000
00003000
00007000
00006000
00006000
03E06000
0FF8C000
1F1CC000
3F06C000
3F02C000
3E038000
1C018000
00018000
00018000
00030000
00010000
ENDCHAR
STARTCHAR C237
ENCODING 237
SWIDTH 720 0
DWIDTH 30 0
BBX 31 27 6 -1
BITMAP
F0001FFE
FC1F1FFE
1F3F9860
03F0D860
01F07860
07F870C0
0FFC30C0
1FFC30C0
3FFC70C0
3EFC6180
38786180
00006180
0000E180
0000C300
0000C300
0000C300
0007C300
000F8600
001FE600
001FF600
001F9600
001F1C00
000E0C00
00000C00
00000C00
00001800
00000800
ENDCHAR
STARTCHAR C238
ENCODING 238
SWIDTH 600 0
DWIDTH 25 0
BBX 26 28 6 -1
BITMAP
00000400
F00007C0
FC0F8FC0
1F3FCC00
03F86C00
01F03C00
07F83C00
0FFC1800
1FFC1800
3FFC1800
3FFC3800
3C783000
00003000
00003000
00007000
00006000
0F8E6000
3FDF6000
7071C000
C021C000
F020C000
F800C000
F8018000
F8018000
70018000
00018000
00030000
00010000
ENDCHAR
STARTCHAR C239
ENCODING 239
SWIDTH 600 0
DWIDTH 25 0
BBX 26 28 6 -1
BITMAP
00000400
F00007C0
FC0F8FC0
1F3FCC00
03F86C00
01F03C00
07F83C00
0FFC1800
1FFC1800
3FFC1800
3FFC3800
3C783000
00003000
00003000
00007000
0001E000
000FE000
003E6000
00F0E000
03C0C000
03E0C000
0078C000
001D8000
000F8000
00078000
00038000
00030000
00030000
ENDCHAR
STARTCHAR C240
ENCODING 240
SWIDTH 600 0
DWIDTH 25 0
BBX 27 27 5 -1
BITMAP
7FFFFFE0
7FFFFFE0
00FF8000
03E0C000
0780C000
0E81C000
1C418000
18638000
38370000
301F8000
307FE000
1FF67000
0FC63800
0F0C1800
3C0C1800
F00CF800
F80DF800
1C19F000
0E19F000
0718E000
03980000
01F00000
00F00000
00F00000
00700000
00600000
00600000
ENDCHAR
STARTCHAR C241
ENCODING 241
SWIDTH 816 0
DWIDTH 34 0
BBX 35 29 6 -3
BITMAP
FFFFFFFFE0
FFFFFFFFE0
01FF800000
03C1800000
0F01800000
1D83800000
38C3000000
3047000000
702FE00000
603FF00000
60FE180000
3FF8180000
1F70180000
10603BE000
10F83FF000
30FC3DF800
20FC33F800
60FC73F800
407863F000
400061E000
4000600000
4000600000
4000E00000
6000C00000
3FE0C00000
1FFFC00000
001FC00000
0001800000
0000800000
ENDCHAR
STARTCHAR C242
ENCODING 242
SWIDTH 528 0
DWIDTH 22 0
BBX 24 38 5 -1
BITMAP
080000
0C0000
070000
03E000
00FFC0
001FF0
000038
000008
000004
000004
000004
7FFFFF
7FFFFF
007F80
01E0C0
0780C0
0F81C0
1C8180
384380
306300
702700
601E00
603C00
21F000
3FC000
1F0700
1C0F80
381F80
701F00
600F00
C00600
C00600
C00C00
C01C00
C03800
60F000
3FE000
1F8000
ENDCHAR
STARTCHAR C243
ENCODING 243
SWIDTH 600 0
DWIDTH 25 0
BBX 26 39 6 1
BITMAP
00008000
0003C000
00038000
00030000
00070000
00060000
00060000
00060000
000E0000
000C0000
000C0000
000C0000
000C0000
000C0000
FFFFFFC0
FFFFFFC0
03FE0000
0F860000
1C070000
3A0F8000
730C8000
611C4000
E1B86000
C0F82000
C0F03000
C3F03000
FFE03000
7DC03000
03807000
07006000
1E00E000
3C00C000
7001C000
60038000
60070000
601E0000
207C0000
1FF00000
0FC00000
ENDCHAR
STARTCHAR C244
ENCODING 244
SWIDTH 792 0
DWIDTH 33 0
BBX 31 27 5 -1
BITMAP
7FFFF000
7FFFF078
1C0031FC
06003384
01003602
00806C02
00407802
00607004
00F060FC
01C8C1F8
0784C1F0
0F02C1F0
1C01C008
3801C008
F001C008
7C01A008
0F01B010
03831870
00C30FE0
00630780
00330000
001E0000
001E0000
000E0000
000E0000
000C0000
00040000
ENDCHAR
STARTCHAR C245
ENCODING 245
SWIDTH 888 0
DWIDTH 37 0
BBX 38 28 6 -1
BITMAP
0000000040
FFFC07C07C
FFFE3FF0FC
0786F838C0
0E07C008C0
1E0FC01CC0
390FE07D80
319C20F780
70B831C380
6070378180
61E03F0300
7F807C0300
3E00780300
0000F00300
0001C00600
0000800600
0000000600
0000000600
0000000C00
0000000C00
0000000C00
0000000C00
0000001800
0000001800
0000001800
0000001800
0000003000
0000001000
ENDCHAR
STARTCHAR C246
ENCODING 246
SWIDTH 816 0
DWIDTH 34 0
BBX 35 27 6 -1
BITMAP
FFFFFFFFE0
FFFFFFFFE0
03FE000000
0F86000000
1E06000000
3A0E01C000
710C01F000
619C03B800
E0F8030C00
C07C030400
C3E2030400
7F83070400
3C0F060C00
001E067800
003806F800
00700EF000
00E00CE000
00C00C0000
00700C0000
001C1C0000
0006180000
0001180000
0000980000
0000780000
0000700000
0000300000
0000100000
ENDCHAR
STARTCHAR C247
ENCODING 247
SWIDTH 600 0
DWIDTH 25 0
BBX 26 27 6 -1
BITMAP
FFFFFFC0
FFFFFFC0
01FF0C00
07C18C00
0F018C00
1D039800
38831800
30C71800
706E1800
603C3000
60F83000
3FF03000
1F303000
00606000
03E06000
07F86000
0FDC6000
0FC6C000
0FC2C000
0F83C000
0701C000
00018000
00018000
00018000
00018000
00030000
00010000
ENDCHAR
STARTCHAR C248
ENCODING 248
SWIDTH 744 0
DWIDTH 31 0
BBX 32 27 6 -1
BITMAP
FFFFFFFF
FFFFFFFF
00380200
00780300
00F80300
00C80300
01CC0700
43860E00
7F03FC00
3E00F800
00003800
0000FE00
0003F700
000F3380
003C3180
00F03180
01C06180
01F06180
00386F80
001C7F00
000EDF00
0007DE00
0003C000
0003C000
00018000
00018000
00018000
ENDCHAR
STARTCHAR C249
ENCODING 249
SWIDTH 840 0
DWIDTH 35 0
BBX 36 29 6 -3
BITMAP
FFFFFFFFF0
FFFFFFFFF0
0038020000
0038030000
007C030000
0064030000
00E6070000
21C30E0000
3F81FC0000
1F03F80000
000FF80000
001E0C0000
00380C0000
00701DF000
10601FF800
30FC1EFC00
20FC19FC00
60FC39FC00
407831F800
400030F000
4000300000
4000700000
6000600000
3800600000
1FFE600000
07FFE00000
0001C00000
0000C00000
0000400000
ENDCHAR
STARTCHAR C250
ENCODING 250
SWIDTH 744 0
DWIDTH 31 0
BBX 32 32 6 -6
BITMAP
FFFFFFFF
FFFFFFFF
00380200
00780300
00F80300
00C80300
01CC0700
43860E00
7F03FC00
3E00F800
00001800
00007C00
0003FF00
000FB380
003C3180
00F03180
00F83780
001C6F80
000E6F80
00076F00
0003EE00
0F8FC000
3FDFC000
7071C000
C021C000
B8218000
FC018000
FC018000
7C018000
38030000
00030000
00030000
ENDCHAR
STARTCHAR C251
ENCODING 251
SWIDTH 792 0
DWIDTH 33 0
BBX 34 28 6 -1
BITMAP
0000000400
FFFFC007C0
FFFFE00FC0
00E0200C00
00E0300C00
01E0300C00
01B0301800
03B0701800
4718E01800
7E0FC01800
3C03E03000
0000703000
0000D83000
0038CC3000
007D8C6000
007F0C6000
007E186000
0038706000
0000E0C000
000380C000
000700C000
000780C000
0001E18000
0000718000
00001D8000
00000F8000
0000030000
0000010000
ENDCHAR
STARTCHAR C252
ENCODING 252
SWIDTH 816 0
DWIDTH 34 0
BBX 36 37 5 0
BITMAP
0008000000
000E000000
0007800000
0001F00000
00007FE000
00000FFC00
0000001F00
0000000380
00000000C0
0000000040
0000000040
7FFFFFFFF0
7FFFFFFFF0
0F00180000
0180300000
0080300000
00C0300000
0040300000
0040600000
005C600000
007E607000
00F160F800
01C1C0FC00
C380C0F800
C700C07800
7E00C03800
3C01803000
0001807000
0001806000
000180C000
000381C000
0003038000
0003070000
00030E0000
00033C0000
0001F80000
0000E00000
ENDCHAR
STARTCHAR C253
ENCODING 253
SWIDTH 672 0
DWIDTH 28 0
BBX 29 27 6 -1
BITMAP
FFFFFFF8
FFFFFFF8
001C0080
001C00C0
003E00C0
003600C0
007201C0
00E30180
F1C18380
5F80FF00
4F03FE00
4007F000
600FD800
200FC800
200F8C00
30070400
10000400
10000400
18000400
08000400
0C000C00
04000800
06001800
03003000
01C0E000
00FFC000
003F0000
ENDCHAR
STARTCHAR C254
ENCODING 254
SWIDTH 600 0
DWIDTH 25 0
BBX 26 29 6 -3
BITMAP
FFFFFFC0
FFFFFFC0
00E00800
00E00C00
00F00C00
01F00C00
01901C00
03981800
870C3800
FE07F000
7C01E000
003F8000
01FFC000
43E06000
67006000
6F80C000
6F9DC000
6FBF8000
677F0000
607E0000
607F0000
60398000
60018000
60018000
30030000
30070000
181E0000
0FFC0000
07F00000
ENDCHAR
STARTCHAR C255
ENCODING 255
SWIDTH 648 0
DWIDTH 27 0
BBX 29 29 5 -3
BITMAP
7FFFFFF8
7FFFFFF8
001C0100
001C0180
003E0180
00320180
00730380
10E18700
1FC0FE00
0F81FC00
0007FC00
001F0600
003C0600
00700E00
20600C00
60FC0C00
40FC0C00
C0FC1C00
80781800
80001800
80001800
80003800
C0003000
70003000
3FFF3000
0FFFF000
0000E000
00006000
00002000
ENDCHAR
ENDFONT
